<?xml version="1.0" encoding="UTF-8" standalone="no"?>
<!DOCTYPE svg PUBLIC "-//W3C//DTD SVG 1.1//EN"
 "http://www.w3.org/Graphics/SVG/1.1/DTD/svg11.dtd">
<!-- Generated by graphviz version 2.50.0 (20211209.0339)
 -->
<!-- Title: snakemake_dag Pages: 1 -->
<svg width="2948pt" height="558pt"
 viewBox="0.00 0.00 2948.00 558.00" xmlns="http://www.w3.org/2000/svg" xmlns:xlink="http://www.w3.org/1999/xlink">
<g id="graph0" class="graph" transform="scale(1 1) rotate(0) translate(4 554)">
<title>snakemake_dag</title>
<polygon fill="white" stroke="transparent" points="-4,4 -4,-554 2944,-554 2944,4 -4,4"/>
<!-- 0 -->
<g id="node1" class="node">
<title>0</title>
<path fill="none" stroke="#56d8c1" stroke-width="2" d="M1451,-36C1451,-36 1421,-36 1421,-36 1415,-36 1409,-30 1409,-24 1409,-24 1409,-12 1409,-12 1409,-6 1415,0 1421,0 1421,0 1451,0 1451,0 1457,0 1463,-6 1463,-12 1463,-12 1463,-24 1463,-24 1463,-30 1457,-36 1451,-36"/>
<text text-anchor="middle" x="1436" y="-15.5" font-family="sans" font-size="10.00">all</text>
</g>
<!-- 1 -->
<g id="node2" class="node">
<title>1</title>
<path fill="none" stroke="#88d856" stroke-width="2" d="M952,-550C952,-550 910,-550 910,-550 904,-550 898,-544 898,-538 898,-538 898,-526 898,-526 898,-520 904,-514 910,-514 910,-514 952,-514 952,-514 958,-514 964,-520 964,-526 964,-526 964,-538 964,-538 964,-544 958,-550 952,-550"/>
<text text-anchor="middle" x="931" y="-535" font-family="sans" font-size="10.00">trim_reads</text>
<text text-anchor="middle" x="931" y="-524" font-family="sans" font-size="10.00">read: R1</text>
</g>
<!-- 1&#45;&gt;0 -->
<g id="edge1" class="edge">
<title>1&#45;&gt;0</title>
<path fill="none" stroke="grey" stroke-width="2" d="M897.87,-529.43C732.02,-521.15 0,-479.32 0,-386.5 0,-386.5 0,-386.5 0,-161 0,-116.87 6.97,-95.99 44,-72 102.45,-34.14 1182.85,-21.5 1398.67,-19.35"/>
<polygon fill="grey" stroke="grey" stroke-width="2" points="1398.89,-22.85 1408.85,-19.25 1398.82,-15.85 1398.89,-22.85"/>
</g>
<!-- 4 -->
<g id="node5" class="node">
<title>4</title>
<path fill="none" stroke="#d88d56" stroke-width="2" d="M1498.5,-478C1498.5,-478 1441.5,-478 1441.5,-478 1435.5,-478 1429.5,-472 1429.5,-466 1429.5,-466 1429.5,-454 1429.5,-454 1429.5,-448 1435.5,-442 1441.5,-442 1441.5,-442 1498.5,-442 1498.5,-442 1504.5,-442 1510.5,-448 1510.5,-454 1510.5,-454 1510.5,-466 1510.5,-466 1510.5,-472 1504.5,-478 1498.5,-478"/>
<text text-anchor="middle" x="1470" y="-457.5" font-family="sans" font-size="10.00">demux_fastqs</text>
</g>
<!-- 1&#45;&gt;4 -->
<g id="edge63" class="edge">
<title>1&#45;&gt;4</title>
<path fill="none" stroke="grey" stroke-width="2" d="M964.31,-526.67C1055.58,-514.82 1310.14,-481.76 1419.27,-467.59"/>
<polygon fill="grey" stroke="grey" stroke-width="2" points="1419.9,-471.04 1429.37,-466.28 1419,-464.09 1419.9,-471.04"/>
</g>
<!-- 2 -->
<g id="node3" class="node">
<title>2</title>
<path fill="none" stroke="#88d856" stroke-width="2" d="M1801,-550C1801,-550 1759,-550 1759,-550 1753,-550 1747,-544 1747,-538 1747,-538 1747,-526 1747,-526 1747,-520 1753,-514 1759,-514 1759,-514 1801,-514 1801,-514 1807,-514 1813,-520 1813,-526 1813,-526 1813,-538 1813,-538 1813,-544 1807,-550 1801,-550"/>
<text text-anchor="middle" x="1780" y="-535" font-family="sans" font-size="10.00">trim_reads</text>
<text text-anchor="middle" x="1780" y="-524" font-family="sans" font-size="10.00">read: R2</text>
</g>
<!-- 2&#45;&gt;0 -->
<g id="edge2" class="edge">
<title>2&#45;&gt;0</title>
<path fill="none" stroke="grey" stroke-width="2" d="M1813.27,-530.3C1999.28,-525.99 2902,-499.25 2902,-386.5 2902,-386.5 2902,-386.5 2902,-161 2902,-118.16 2900.19,-96.43 2865,-72 2806.19,-31.16 1692.66,-20.89 1473.33,-19.25"/>
<polygon fill="grey" stroke="grey" stroke-width="2" points="1473.31,-15.75 1463.28,-19.18 1473.25,-22.75 1473.31,-15.75"/>
</g>
<!-- 2&#45;&gt;4 -->
<g id="edge64" class="edge">
<title>2&#45;&gt;4</title>
<path fill="none" stroke="grey" stroke-width="2" d="M1746.82,-523.51C1692.56,-511.26 1584.48,-486.85 1520.6,-472.43"/>
<polygon fill="grey" stroke="grey" stroke-width="2" points="1521.27,-468.99 1510.75,-470.2 1519.73,-475.82 1521.27,-468.99"/>
</g>
<!-- 3 -->
<g id="node4" class="node">
<title>3</title>
<path fill="none" stroke="#88d856" stroke-width="2" d="M2506,-550C2506,-550 2464,-550 2464,-550 2458,-550 2452,-544 2452,-538 2452,-538 2452,-526 2452,-526 2452,-520 2458,-514 2464,-514 2464,-514 2506,-514 2506,-514 2512,-514 2518,-520 2518,-526 2518,-526 2518,-538 2518,-538 2518,-544 2512,-550 2506,-550"/>
<text text-anchor="middle" x="2485" y="-535" font-family="sans" font-size="10.00">trim_reads</text>
<text text-anchor="middle" x="2485" y="-524" font-family="sans" font-size="10.00">read: R3</text>
</g>
<!-- 3&#45;&gt;0 -->
<g id="edge3" class="edge">
<title>3&#45;&gt;0</title>
<path fill="none" stroke="grey" stroke-width="2" d="M2518.09,-527.73C2622.79,-516.48 2940,-475.08 2940,-386.5 2940,-386.5 2940,-386.5 2940,-161 2940,-116.68 2932.33,-95.9 2895,-72 2833.37,-32.54 1695.33,-21.14 1473.36,-19.29"/>
<polygon fill="grey" stroke="grey" stroke-width="2" points="1473.22,-15.79 1463.2,-19.21 1473.17,-22.79 1473.22,-15.79"/>
</g>
<!-- 3&#45;&gt;4 -->
<g id="edge62" class="edge">
<title>3&#45;&gt;4</title>
<path fill="none" stroke="grey" stroke-width="2" d="M2451.81,-528.71C2303.49,-518.48 1700.89,-476.92 1520.96,-464.51"/>
<polygon fill="grey" stroke="grey" stroke-width="2" points="1520.94,-461 1510.72,-463.81 1520.46,-467.99 1520.94,-461"/>
</g>
<!-- 4&#45;&gt;0 -->
<g id="edge4" class="edge">
<title>4&#45;&gt;0</title>
<path fill="none" stroke="grey" stroke-width="2" d="M1429.27,-459.25C1217.41,-460.32 246.62,-462.11 126,-406 73.37,-381.52 38,-367.54 38,-309.5 38,-309.5 38,-309.5 38,-161 38,-116.47 46.43,-95.9 84,-72 140.98,-35.76 1186.83,-21.86 1398.74,-19.41"/>
<polygon fill="grey" stroke="grey" stroke-width="2" points="1398.79,-22.91 1408.75,-19.29 1398.71,-15.91 1398.79,-22.91"/>
</g>
<!-- 5 -->
<g id="node6" class="node">
<title>5</title>
<path fill="none" stroke="#d8bc56" stroke-width="2" d="M245,-406C245,-406 147,-406 147,-406 141,-406 135,-400 135,-394 135,-394 135,-377 135,-377 135,-371 141,-365 147,-365 147,-365 245,-365 245,-365 251,-365 257,-371 257,-377 257,-377 257,-394 257,-394 257,-400 251,-406 245,-406"/>
<text text-anchor="middle" x="196" y="-394" font-family="sans" font-size="10.00">rename_fastqs</text>
<text text-anchor="middle" x="196" y="-383" font-family="sans" font-size="10.00">dmx_read: R1</text>
<text text-anchor="middle" x="196" y="-372" font-family="sans" font-size="10.00">sample: Day05_pooled</text>
</g>
<!-- 4&#45;&gt;5 -->
<g id="edge65" class="edge">
<title>4&#45;&gt;5</title>
<path fill="none" stroke="grey" stroke-width="2" d="M1429.02,-457.81C1285.33,-453.45 791.03,-437.02 384,-406 345.44,-403.06 302.53,-398.69 267.46,-394.84"/>
<polygon fill="grey" stroke="grey" stroke-width="2" points="267.63,-391.34 257.31,-393.71 266.86,-398.29 267.63,-391.34"/>
</g>
<!-- 6 -->
<g id="node7" class="node">
<title>6</title>
<path fill="none" stroke="#d8bc56" stroke-width="2" d="M495,-406C495,-406 405,-406 405,-406 399,-406 393,-400 393,-394 393,-394 393,-377 393,-377 393,-371 399,-365 405,-365 405,-365 495,-365 495,-365 501,-365 507,-371 507,-377 507,-377 507,-394 507,-394 507,-400 501,-406 495,-406"/>
<text text-anchor="middle" x="450" y="-394" font-family="sans" font-size="10.00">rename_fastqs</text>
<text text-anchor="middle" x="450" y="-383" font-family="sans" font-size="10.00">dmx_read: R1</text>
<text text-anchor="middle" x="450" y="-372" font-family="sans" font-size="10.00">sample: Day22_RepA</text>
</g>
<!-- 4&#45;&gt;6 -->
<g id="edge66" class="edge">
<title>4&#45;&gt;6</title>
<path fill="none" stroke="grey" stroke-width="2" d="M1429.27,-456.98C1308.46,-450.87 941.61,-431.41 638,-406 597.97,-402.65 553.24,-398.05 517.45,-394.15"/>
<polygon fill="grey" stroke="grey" stroke-width="2" points="517.45,-390.63 507.13,-393.02 516.68,-397.59 517.45,-390.63"/>
</g>
<!-- 7 -->
<g id="node8" class="node">
<title>7</title>
<path fill="none" stroke="#d8bc56" stroke-width="2" d="M749,-406C749,-406 659,-406 659,-406 653,-406 647,-400 647,-394 647,-394 647,-377 647,-377 647,-371 653,-365 659,-365 659,-365 749,-365 749,-365 755,-365 761,-371 761,-377 761,-377 761,-394 761,-394 761,-400 755,-406 749,-406"/>
<text text-anchor="middle" x="704" y="-394" font-family="sans" font-size="10.00">rename_fastqs</text>
<text text-anchor="middle" x="704" y="-383" font-family="sans" font-size="10.00">dmx_read: R1</text>
<text text-anchor="middle" x="704" y="-372" font-family="sans" font-size="10.00">sample: Day22_RepB</text>
</g>
<!-- 4&#45;&gt;7 -->
<g id="edge67" class="edge">
<title>4&#45;&gt;7</title>
<path fill="none" stroke="grey" stroke-width="2" d="M1429.24,-457.02C1326.08,-451.74 1046.42,-435.62 815,-406 800.73,-404.17 785.5,-401.79 771.04,-399.31"/>
<polygon fill="grey" stroke="grey" stroke-width="2" points="771.62,-395.86 761.17,-397.59 770.42,-402.76 771.62,-395.86"/>
</g>
<!-- 8 -->
<g id="node9" class="node">
<title>8</title>
<path fill="none" stroke="#d8bc56" stroke-width="2" d="M925.5,-406C925.5,-406 836.5,-406 836.5,-406 830.5,-406 824.5,-400 824.5,-394 824.5,-394 824.5,-377 824.5,-377 824.5,-371 830.5,-365 836.5,-365 836.5,-365 925.5,-365 925.5,-365 931.5,-365 937.5,-371 937.5,-377 937.5,-377 937.5,-394 937.5,-394 937.5,-400 931.5,-406 925.5,-406"/>
<text text-anchor="middle" x="881" y="-394" font-family="sans" font-size="10.00">rename_fastqs</text>
<text text-anchor="middle" x="881" y="-383" font-family="sans" font-size="10.00">dmx_read: R1</text>
<text text-anchor="middle" x="881" y="-372" font-family="sans" font-size="10.00">sample: Day22_RepC</text>
</g>
<!-- 4&#45;&gt;8 -->
<g id="edge68" class="edge">
<title>4&#45;&gt;8</title>
<path fill="none" stroke="grey" stroke-width="2" d="M1429.27,-457.45C1342.31,-453.6 1132.09,-441.35 947.59,-405.91"/>
<polygon fill="grey" stroke="grey" stroke-width="2" points="948.2,-402.46 937.71,-403.99 946.86,-409.33 948.2,-402.46"/>
</g>
<!-- 9 -->
<g id="node10" class="node">
<title>9</title>
<path fill="none" stroke="#d8bc56" stroke-width="2" d="M1217,-406C1217,-406 1119,-406 1119,-406 1113,-406 1107,-400 1107,-394 1107,-394 1107,-377 1107,-377 1107,-371 1113,-365 1119,-365 1119,-365 1217,-365 1217,-365 1223,-365 1229,-371 1229,-377 1229,-377 1229,-394 1229,-394 1229,-400 1223,-406 1217,-406"/>
<text text-anchor="middle" x="1168" y="-394" font-family="sans" font-size="10.00">rename_fastqs</text>
<text text-anchor="middle" x="1168" y="-383" font-family="sans" font-size="10.00">dmx_read: R1</text>
<text text-anchor="middle" x="1168" y="-372" font-family="sans" font-size="10.00">sample: Day00_pooled</text>
</g>
<!-- 4&#45;&gt;9 -->
<g id="edge69" class="edge">
<title>4&#45;&gt;9</title>
<path fill="none" stroke="grey" stroke-width="2" d="M1429.27,-449.22C1380.64,-437.55 1298.47,-417.82 1239.25,-403.6"/>
<polygon fill="grey" stroke="grey" stroke-width="2" points="1239.75,-400.13 1229.21,-401.19 1238.12,-406.93 1239.75,-400.13"/>
</g>
<!-- 10 -->
<g id="node11" class="node">
<title>10</title>
<path fill="none" stroke="#d8bc56" stroke-width="2" d="M1465,-406C1465,-406 1379,-406 1379,-406 1373,-406 1367,-400 1367,-394 1367,-394 1367,-377 1367,-377 1367,-371 1373,-365 1379,-365 1379,-365 1465,-365 1465,-365 1471,-365 1477,-371 1477,-377 1477,-377 1477,-394 1477,-394 1477,-400 1471,-406 1465,-406"/>
<text text-anchor="middle" x="1422" y="-394" font-family="sans" font-size="10.00">rename_fastqs</text>
<text text-anchor="middle" x="1422" y="-383" font-family="sans" font-size="10.00">dmx_read: R1</text>
<text text-anchor="middle" x="1422" y="-372" font-family="sans" font-size="10.00">sample: PC9_spikein</text>
</g>
<!-- 4&#45;&gt;10 -->
<g id="edge70" class="edge">
<title>4&#45;&gt;10</title>
<path fill="none" stroke="grey" stroke-width="2" d="M1458.62,-441.82C1453.25,-433.7 1446.69,-423.79 1440.61,-414.61"/>
<polygon fill="grey" stroke="grey" stroke-width="2" points="1443.43,-412.53 1434.99,-406.12 1437.59,-416.39 1443.43,-412.53"/>
</g>
<!-- 11 -->
<g id="node12" class="node">
<title>11</title>
<path fill="none" stroke="#d8bc56" stroke-width="2" d="M1663,-329C1663,-329 1565,-329 1565,-329 1559,-329 1553,-323 1553,-317 1553,-317 1553,-300 1553,-300 1553,-294 1559,-288 1565,-288 1565,-288 1663,-288 1663,-288 1669,-288 1675,-294 1675,-300 1675,-300 1675,-317 1675,-317 1675,-323 1669,-329 1663,-329"/>
<text text-anchor="middle" x="1614" y="-317" font-family="sans" font-size="10.00">rename_fastqs</text>
<text text-anchor="middle" x="1614" y="-306" font-family="sans" font-size="10.00">dmx_read: R2</text>
<text text-anchor="middle" x="1614" y="-295" font-family="sans" font-size="10.00">sample: Day05_pooled</text>
</g>
<!-- 4&#45;&gt;11 -->
<g id="edge71" class="edge">
<title>4&#45;&gt;11</title>
<path fill="none" stroke="grey" stroke-width="2" d="M1486.52,-441.85C1511.31,-416.11 1558.36,-367.26 1587.85,-336.65"/>
<polygon fill="grey" stroke="grey" stroke-width="2" points="1590.53,-338.92 1594.94,-329.28 1585.48,-334.06 1590.53,-338.92"/>
</g>
<!-- 12 -->
<g id="node13" class="node">
<title>12</title>
<path fill="none" stroke="#d8bc56" stroke-width="2" d="M1861,-329C1861,-329 1771,-329 1771,-329 1765,-329 1759,-323 1759,-317 1759,-317 1759,-300 1759,-300 1759,-294 1765,-288 1771,-288 1771,-288 1861,-288 1861,-288 1867,-288 1873,-294 1873,-300 1873,-300 1873,-317 1873,-317 1873,-323 1867,-329 1861,-329"/>
<text text-anchor="middle" x="1816" y="-317" font-family="sans" font-size="10.00">rename_fastqs</text>
<text text-anchor="middle" x="1816" y="-306" font-family="sans" font-size="10.00">dmx_read: R2</text>
<text text-anchor="middle" x="1816" y="-295" font-family="sans" font-size="10.00">sample: Day22_RepA</text>
</g>
<!-- 4&#45;&gt;12 -->
<g id="edge72" class="edge">
<title>4&#45;&gt;12</title>
<path fill="none" stroke="grey" stroke-width="2" d="M1509.35,-442C1571.1,-415.32 1690.92,-363.55 1761.11,-333.22"/>
<polygon fill="grey" stroke="grey" stroke-width="2" points="1762.88,-336.27 1770.67,-329.09 1760.1,-329.84 1762.88,-336.27"/>
</g>
<!-- 13 -->
<g id="node14" class="node">
<title>13</title>
<path fill="none" stroke="#d8bc56" stroke-width="2" d="M2063,-329C2063,-329 1973,-329 1973,-329 1967,-329 1961,-323 1961,-317 1961,-317 1961,-300 1961,-300 1961,-294 1967,-288 1973,-288 1973,-288 2063,-288 2063,-288 2069,-288 2075,-294 2075,-300 2075,-300 2075,-317 2075,-317 2075,-323 2069,-329 2063,-329"/>
<text text-anchor="middle" x="2018" y="-317" font-family="sans" font-size="10.00">rename_fastqs</text>
<text text-anchor="middle" x="2018" y="-306" font-family="sans" font-size="10.00">dmx_read: R2</text>
<text text-anchor="middle" x="2018" y="-295" font-family="sans" font-size="10.00">sample: Day22_RepB</text>
</g>
<!-- 4&#45;&gt;13 -->
<g id="edge73" class="edge">
<title>4&#45;&gt;13</title>
<path fill="none" stroke="grey" stroke-width="2" d="M1510.74,-447.89C1604.5,-422.31 1836.29,-359.07 1951.2,-327.72"/>
<polygon fill="grey" stroke="grey" stroke-width="2" points="1952.22,-331.07 1960.95,-325.06 1950.38,-324.32 1952.22,-331.07"/>
</g>
<!-- 14 -->
<g id="node15" class="node">
<title>14</title>
<path fill="none" stroke="#d8bc56" stroke-width="2" d="M2204.5,-329C2204.5,-329 2115.5,-329 2115.5,-329 2109.5,-329 2103.5,-323 2103.5,-317 2103.5,-317 2103.5,-300 2103.5,-300 2103.5,-294 2109.5,-288 2115.5,-288 2115.5,-288 2204.5,-288 2204.5,-288 2210.5,-288 2216.5,-294 2216.5,-300 2216.5,-300 2216.5,-317 2216.5,-317 2216.5,-323 2210.5,-329 2204.5,-329"/>
<text text-anchor="middle" x="2160" y="-317" font-family="sans" font-size="10.00">rename_fastqs</text>
<text text-anchor="middle" x="2160" y="-306" font-family="sans" font-size="10.00">dmx_read: R2</text>
<text text-anchor="middle" x="2160" y="-295" font-family="sans" font-size="10.00">sample: Day22_RepC</text>
</g>
<!-- 4&#45;&gt;14 -->
<g id="edge74" class="edge">
<title>4&#45;&gt;14</title>
<path fill="none" stroke="grey" stroke-width="2" d="M1510.67,-452.18C1566.56,-442.65 1670.18,-424.44 1758,-406 1903.7,-375.41 1939.45,-364.61 2084,-329 2087.01,-328.26 2090.09,-327.49 2093.19,-326.72"/>
<polygon fill="grey" stroke="grey" stroke-width="2" points="2094.33,-330.04 2103.17,-324.21 2092.62,-323.25 2094.33,-330.04"/>
</g>
<!-- 15 -->
<g id="node16" class="node">
<title>15</title>
<path fill="none" stroke="#d8bc56" stroke-width="2" d="M2471,-329C2471,-329 2373,-329 2373,-329 2367,-329 2361,-323 2361,-317 2361,-317 2361,-300 2361,-300 2361,-294 2367,-288 2373,-288 2373,-288 2471,-288 2471,-288 2477,-288 2483,-294 2483,-300 2483,-300 2483,-317 2483,-317 2483,-323 2477,-329 2471,-329"/>
<text text-anchor="middle" x="2422" y="-317" font-family="sans" font-size="10.00">rename_fastqs</text>
<text text-anchor="middle" x="2422" y="-306" font-family="sans" font-size="10.00">dmx_read: R2</text>
<text text-anchor="middle" x="2422" y="-295" font-family="sans" font-size="10.00">sample: Day00_pooled</text>
</g>
<!-- 4&#45;&gt;15 -->
<g id="edge75" class="edge">
<title>4&#45;&gt;15</title>
<path fill="none" stroke="grey" stroke-width="2" d="M1510.56,-454.76C1635.99,-441.28 2028.32,-396.27 2348,-329 2348.91,-328.81 2349.83,-328.61 2350.75,-328.41"/>
<polygon fill="grey" stroke="grey" stroke-width="2" points="2351.76,-331.77 2360.74,-326.15 2350.21,-324.95 2351.76,-331.77"/>
</g>
<!-- 16 -->
<g id="node17" class="node">
<title>16</title>
<path fill="none" stroke="#d8bc56" stroke-width="2" d="M2667,-329C2667,-329 2581,-329 2581,-329 2575,-329 2569,-323 2569,-317 2569,-317 2569,-300 2569,-300 2569,-294 2575,-288 2581,-288 2581,-288 2667,-288 2667,-288 2673,-288 2679,-294 2679,-300 2679,-300 2679,-317 2679,-317 2679,-323 2673,-329 2667,-329"/>
<text text-anchor="middle" x="2624" y="-317" font-family="sans" font-size="10.00">rename_fastqs</text>
<text text-anchor="middle" x="2624" y="-306" font-family="sans" font-size="10.00">dmx_read: R2</text>
<text text-anchor="middle" x="2624" y="-295" font-family="sans" font-size="10.00">sample: PC9_spikein</text>
</g>
<!-- 4&#45;&gt;16 -->
<g id="edge76" class="edge">
<title>4&#45;&gt;16</title>
<path fill="none" stroke="grey" stroke-width="2" d="M1510.69,-456.37C1605.71,-449.99 1849.51,-432.26 2052,-406 2236.8,-382.03 2453.28,-342.3 2559.1,-322.11"/>
<polygon fill="grey" stroke="grey" stroke-width="2" points="2559.83,-325.54 2568.99,-320.22 2558.51,-318.66 2559.83,-325.54"/>
</g>
<!-- 5&#45;&gt;0 -->
<g id="edge5" class="edge">
<title>5&#45;&gt;0</title>
<path fill="none" stroke="grey" stroke-width="2" d="M165.1,-364.82C129.54,-339.5 76,-291.91 76,-235 76,-235 76,-235 76,-161 76,-115.63 87.31,-95.7 126,-72 181.68,-37.89 1190.44,-22.34 1398.61,-19.49"/>
<polygon fill="grey" stroke="grey" stroke-width="2" points="1398.78,-22.99 1408.73,-19.35 1398.69,-15.99 1398.78,-22.99"/>
</g>
<!-- 19 -->
<g id="node20" class="node">
<title>19</title>
<path fill="none" stroke="#568ad8" stroke-width="2" d="M218,-326.5C218,-326.5 174,-326.5 174,-326.5 168,-326.5 162,-320.5 162,-314.5 162,-314.5 162,-302.5 162,-302.5 162,-296.5 168,-290.5 174,-290.5 174,-290.5 218,-290.5 218,-290.5 224,-290.5 230,-296.5 230,-302.5 230,-302.5 230,-314.5 230,-314.5 230,-320.5 224,-326.5 218,-326.5"/>
<text text-anchor="middle" x="196" y="-306" font-family="sans" font-size="10.00">align_reads</text>
</g>
<!-- 5&#45;&gt;19 -->
<g id="edge77" class="edge">
<title>5&#45;&gt;19</title>
<path fill="none" stroke="grey" stroke-width="2" d="M196,-364.79C196,-356.31 196,-346.24 196,-337.04"/>
<polygon fill="grey" stroke="grey" stroke-width="2" points="199.5,-336.78 196,-326.78 192.5,-336.78 199.5,-336.78"/>
</g>
<!-- 6&#45;&gt;0 -->
<g id="edge6" class="edge">
<title>6&#45;&gt;0</title>
<path fill="none" stroke="grey" stroke-width="2" d="M419.1,-364.82C383.54,-339.5 330,-291.91 330,-235 330,-235 330,-235 330,-161 330,-116.68 337.83,-96.15 375,-72 462.28,-15.28 1220.78,-17.38 1398.74,-18.67"/>
<polygon fill="grey" stroke="grey" stroke-width="2" points="1398.89,-22.17 1408.91,-18.75 1398.94,-15.17 1398.89,-22.17"/>
</g>
<!-- 20 -->
<g id="node21" class="node">
<title>20</title>
<path fill="none" stroke="#568ad8" stroke-width="2" d="M472,-326.5C472,-326.5 428,-326.5 428,-326.5 422,-326.5 416,-320.5 416,-314.5 416,-314.5 416,-302.5 416,-302.5 416,-296.5 422,-290.5 428,-290.5 428,-290.5 472,-290.5 472,-290.5 478,-290.5 484,-296.5 484,-302.5 484,-302.5 484,-314.5 484,-314.5 484,-320.5 478,-326.5 472,-326.5"/>
<text text-anchor="middle" x="450" y="-306" font-family="sans" font-size="10.00">align_reads</text>
</g>
<!-- 6&#45;&gt;20 -->
<g id="edge79" class="edge">
<title>6&#45;&gt;20</title>
<path fill="none" stroke="grey" stroke-width="2" d="M450,-364.79C450,-356.31 450,-346.24 450,-337.04"/>
<polygon fill="grey" stroke="grey" stroke-width="2" points="453.5,-336.78 450,-326.78 446.5,-336.78 453.5,-336.78"/>
</g>
<!-- 7&#45;&gt;0 -->
<g id="edge7" class="edge">
<title>7&#45;&gt;0</title>
<path fill="none" stroke="grey" stroke-width="2" d="M686.94,-364.98C641,-310.09 523.79,-153.17 610,-72 667.98,-17.41 1244.92,-17.62 1398.57,-18.66"/>
<polygon fill="grey" stroke="grey" stroke-width="2" points="1398.86,-22.16 1408.89,-18.73 1398.91,-15.16 1398.86,-22.16"/>
</g>
<!-- 21 -->
<g id="node22" class="node">
<title>21</title>
<path fill="none" stroke="#568ad8" stroke-width="2" d="M726,-326.5C726,-326.5 682,-326.5 682,-326.5 676,-326.5 670,-320.5 670,-314.5 670,-314.5 670,-302.5 670,-302.5 670,-296.5 676,-290.5 682,-290.5 682,-290.5 726,-290.5 726,-290.5 732,-290.5 738,-296.5 738,-302.5 738,-302.5 738,-314.5 738,-314.5 738,-320.5 732,-326.5 726,-326.5"/>
<text text-anchor="middle" x="704" y="-306" font-family="sans" font-size="10.00">align_reads</text>
</g>
<!-- 7&#45;&gt;21 -->
<g id="edge81" class="edge">
<title>7&#45;&gt;21</title>
<path fill="none" stroke="grey" stroke-width="2" d="M704,-364.79C704,-356.31 704,-346.24 704,-337.04"/>
<polygon fill="grey" stroke="grey" stroke-width="2" points="707.5,-336.78 704,-326.78 700.5,-336.78 707.5,-336.78"/>
</g>
<!-- 8&#45;&gt;0 -->
<g id="edge8" class="edge">
<title>8&#45;&gt;0</title>
<path fill="none" stroke="grey" stroke-width="2" d="M875.99,-364.92C862.67,-307.77 833.44,-140.88 926,-72 963.79,-43.88 1287.76,-26.03 1398.82,-20.69"/>
<polygon fill="grey" stroke="grey" stroke-width="2" points="1399.06,-24.18 1408.89,-20.21 1398.73,-17.19 1399.06,-24.18"/>
</g>
<!-- 22 -->
<g id="node23" class="node">
<title>22</title>
<path fill="none" stroke="#568ad8" stroke-width="2" d="M965,-326.5C965,-326.5 921,-326.5 921,-326.5 915,-326.5 909,-320.5 909,-314.5 909,-314.5 909,-302.5 909,-302.5 909,-296.5 915,-290.5 921,-290.5 921,-290.5 965,-290.5 965,-290.5 971,-290.5 977,-296.5 977,-302.5 977,-302.5 977,-314.5 977,-314.5 977,-320.5 971,-326.5 965,-326.5"/>
<text text-anchor="middle" x="943" y="-306" font-family="sans" font-size="10.00">align_reads</text>
</g>
<!-- 8&#45;&gt;22 -->
<g id="edge83" class="edge">
<title>8&#45;&gt;22</title>
<path fill="none" stroke="grey" stroke-width="2" d="M897.29,-364.79C904.91,-355.57 914.08,-344.48 922.2,-334.66"/>
<polygon fill="grey" stroke="grey" stroke-width="2" points="925.04,-336.71 928.72,-326.78 919.65,-332.25 925.04,-336.71"/>
</g>
<!-- 9&#45;&gt;0 -->
<g id="edge9" class="edge">
<title>9&#45;&gt;0</title>
<path fill="none" stroke="grey" stroke-width="2" d="M1147.59,-364.86C1138.83,-355.03 1129.58,-342.38 1125,-329 1087.28,-218.74 1091.29,-150.96 1177,-72 1208.9,-42.62 1334.84,-27.73 1398.6,-21.95"/>
<polygon fill="grey" stroke="grey" stroke-width="2" points="1398.99,-25.43 1408.64,-21.07 1398.37,-18.46 1398.99,-25.43"/>
</g>
<!-- 23 -->
<g id="node24" class="node">
<title>23</title>
<path fill="none" stroke="#568ad8" stroke-width="2" d="M1190,-326.5C1190,-326.5 1146,-326.5 1146,-326.5 1140,-326.5 1134,-320.5 1134,-314.5 1134,-314.5 1134,-302.5 1134,-302.5 1134,-296.5 1140,-290.5 1146,-290.5 1146,-290.5 1190,-290.5 1190,-290.5 1196,-290.5 1202,-296.5 1202,-302.5 1202,-302.5 1202,-314.5 1202,-314.5 1202,-320.5 1196,-326.5 1190,-326.5"/>
<text text-anchor="middle" x="1168" y="-306" font-family="sans" font-size="10.00">align_reads</text>
</g>
<!-- 9&#45;&gt;23 -->
<g id="edge85" class="edge">
<title>9&#45;&gt;23</title>
<path fill="none" stroke="grey" stroke-width="2" d="M1168,-364.79C1168,-356.31 1168,-346.24 1168,-337.04"/>
<polygon fill="grey" stroke="grey" stroke-width="2" points="1171.5,-336.78 1168,-326.78 1164.5,-336.78 1171.5,-336.78"/>
</g>
<!-- 10&#45;&gt;0 -->
<g id="edge10" class="edge">
<title>10&#45;&gt;0</title>
<path fill="none" stroke="grey" stroke-width="2" d="M1403.2,-364.91C1394.59,-354.89 1384.99,-342.08 1379,-329 1361.26,-290.25 1360,-277.62 1360,-235 1360,-235 1360,-235 1360,-161 1360,-115.64 1390.52,-70.75 1412.88,-43.95"/>
<polygon fill="grey" stroke="grey" stroke-width="2" points="1415.64,-46.09 1419.51,-36.23 1410.34,-41.53 1415.64,-46.09"/>
</g>
<!-- 24 -->
<g id="node25" class="node">
<title>24</title>
<path fill="none" stroke="#568ad8" stroke-width="2" d="M1444,-326.5C1444,-326.5 1400,-326.5 1400,-326.5 1394,-326.5 1388,-320.5 1388,-314.5 1388,-314.5 1388,-302.5 1388,-302.5 1388,-296.5 1394,-290.5 1400,-290.5 1400,-290.5 1444,-290.5 1444,-290.5 1450,-290.5 1456,-296.5 1456,-302.5 1456,-302.5 1456,-314.5 1456,-314.5 1456,-320.5 1450,-326.5 1444,-326.5"/>
<text text-anchor="middle" x="1422" y="-306" font-family="sans" font-size="10.00">align_reads</text>
</g>
<!-- 10&#45;&gt;24 -->
<g id="edge87" class="edge">
<title>10&#45;&gt;24</title>
<path fill="none" stroke="grey" stroke-width="2" d="M1422,-364.79C1422,-356.31 1422,-346.24 1422,-337.04"/>
<polygon fill="grey" stroke="grey" stroke-width="2" points="1425.5,-336.78 1422,-326.78 1418.5,-336.78 1425.5,-336.78"/>
</g>
<!-- 11&#45;&gt;0 -->
<g id="edge11" class="edge">
<title>11&#45;&gt;0</title>
<path fill="none" stroke="grey" stroke-width="2" d="M1615.47,-287.78C1617.7,-242.17 1616.19,-129.01 1553,-72 1530.15,-51.39 1497.94,-37.6 1473.1,-29.26"/>
<polygon fill="grey" stroke="grey" stroke-width="2" points="1473.89,-25.84 1463.3,-26.13 1471.75,-32.51 1473.89,-25.84"/>
</g>
<!-- 25 -->
<g id="node26" class="node">
<title>25</title>
<path fill="none" stroke="#568ad8" stroke-width="2" d="M1727,-252C1727,-252 1683,-252 1683,-252 1677,-252 1671,-246 1671,-240 1671,-240 1671,-228 1671,-228 1671,-222 1677,-216 1683,-216 1683,-216 1727,-216 1727,-216 1733,-216 1739,-222 1739,-228 1739,-228 1739,-240 1739,-240 1739,-246 1733,-252 1727,-252"/>
<text text-anchor="middle" x="1705" y="-231.5" font-family="sans" font-size="10.00">align_reads</text>
</g>
<!-- 11&#45;&gt;25 -->
<g id="edge89" class="edge">
<title>11&#45;&gt;25</title>
<path fill="none" stroke="grey" stroke-width="2" d="M1638.87,-287.69C1650.24,-278.63 1663.8,-267.83 1675.66,-258.37"/>
<polygon fill="grey" stroke="grey" stroke-width="2" points="1677.92,-261.05 1683.56,-252.08 1673.56,-255.57 1677.92,-261.05"/>
</g>
<!-- 12&#45;&gt;0 -->
<g id="edge12" class="edge">
<title>12&#45;&gt;0</title>
<path fill="none" stroke="grey" stroke-width="2" d="M1820.5,-287.72C1829.51,-242.5 1844.22,-130.94 1786,-72 1742.91,-28.38 1554.35,-20.56 1473.27,-19.23"/>
<polygon fill="grey" stroke="grey" stroke-width="2" points="1473.07,-15.73 1463.03,-19.09 1472.98,-22.73 1473.07,-15.73"/>
</g>
<!-- 26 -->
<g id="node27" class="node">
<title>26</title>
<path fill="none" stroke="#568ad8" stroke-width="2" d="M1929,-252C1929,-252 1885,-252 1885,-252 1879,-252 1873,-246 1873,-240 1873,-240 1873,-228 1873,-228 1873,-222 1879,-216 1885,-216 1885,-216 1929,-216 1929,-216 1935,-216 1941,-222 1941,-228 1941,-228 1941,-240 1941,-240 1941,-246 1935,-252 1929,-252"/>
<text text-anchor="middle" x="1907" y="-231.5" font-family="sans" font-size="10.00">align_reads</text>
</g>
<!-- 12&#45;&gt;26 -->
<g id="edge91" class="edge">
<title>12&#45;&gt;26</title>
<path fill="none" stroke="grey" stroke-width="2" d="M1840.87,-287.69C1852.24,-278.63 1865.8,-267.83 1877.66,-258.37"/>
<polygon fill="grey" stroke="grey" stroke-width="2" points="1879.92,-261.05 1885.56,-252.08 1875.56,-255.57 1879.92,-261.05"/>
</g>
<!-- 13&#45;&gt;0 -->
<g id="edge13" class="edge">
<title>13&#45;&gt;0</title>
<path fill="none" stroke="grey" stroke-width="2" d="M2022.65,-287.84C2032.11,-242.37 2047.95,-129.47 1988,-72 1950.89,-36.43 1591.47,-23.32 1473.39,-19.95"/>
<polygon fill="grey" stroke="grey" stroke-width="2" points="1473.14,-16.45 1463.05,-19.67 1472.95,-23.44 1473.14,-16.45"/>
</g>
<!-- 27 -->
<g id="node28" class="node">
<title>27</title>
<path fill="none" stroke="#568ad8" stroke-width="2" d="M2131,-252C2131,-252 2087,-252 2087,-252 2081,-252 2075,-246 2075,-240 2075,-240 2075,-228 2075,-228 2075,-222 2081,-216 2087,-216 2087,-216 2131,-216 2131,-216 2137,-216 2143,-222 2143,-228 2143,-228 2143,-240 2143,-240 2143,-246 2137,-252 2131,-252"/>
<text text-anchor="middle" x="2109" y="-231.5" font-family="sans" font-size="10.00">align_reads</text>
</g>
<!-- 13&#45;&gt;27 -->
<g id="edge93" class="edge">
<title>13&#45;&gt;27</title>
<path fill="none" stroke="grey" stroke-width="2" d="M2042.87,-287.69C2054.24,-278.63 2067.8,-267.83 2079.66,-258.37"/>
<polygon fill="grey" stroke="grey" stroke-width="2" points="2081.92,-261.05 2087.56,-252.08 2077.56,-255.57 2081.92,-261.05"/>
</g>
<!-- 14&#45;&gt;0 -->
<g id="edge14" class="edge">
<title>14&#45;&gt;0</title>
<path fill="none" stroke="grey" stroke-width="2" d="M2171.75,-287.73C2197.25,-242.04 2250.68,-128.7 2190,-72 2137.27,-22.73 1618.35,-19 1473.42,-18.93"/>
<polygon fill="grey" stroke="grey" stroke-width="2" points="1473.26,-15.43 1463.26,-18.93 1473.26,-22.43 1473.26,-15.43"/>
</g>
<!-- 28 -->
<g id="node29" class="node">
<title>28</title>
<path fill="none" stroke="#568ad8" stroke-width="2" d="M2306,-252C2306,-252 2262,-252 2262,-252 2256,-252 2250,-246 2250,-240 2250,-240 2250,-228 2250,-228 2250,-222 2256,-216 2262,-216 2262,-216 2306,-216 2306,-216 2312,-216 2318,-222 2318,-228 2318,-228 2318,-240 2318,-240 2318,-246 2312,-252 2306,-252"/>
<text text-anchor="middle" x="2284" y="-231.5" font-family="sans" font-size="10.00">align_reads</text>
</g>
<!-- 14&#45;&gt;28 -->
<g id="edge95" class="edge">
<title>14&#45;&gt;28</title>
<path fill="none" stroke="grey" stroke-width="2" d="M2193.56,-287.88C2209.65,-278.47 2229.02,-267.15 2245.69,-257.4"/>
<polygon fill="grey" stroke="grey" stroke-width="2" points="2247.77,-260.24 2254.64,-252.17 2244.24,-254.19 2247.77,-260.24"/>
</g>
<!-- 15&#45;&gt;0 -->
<g id="edge15" class="edge">
<title>15&#45;&gt;0</title>
<path fill="none" stroke="grey" stroke-width="2" d="M2426.81,-287.67C2436.6,-241.85 2453.1,-128.25 2392,-72 2357.64,-40.36 1646.49,-23.42 1473.62,-19.76"/>
<polygon fill="grey" stroke="grey" stroke-width="2" points="1473.55,-16.26 1463.48,-19.55 1473.41,-23.26 1473.55,-16.26"/>
</g>
<!-- 29 -->
<g id="node30" class="node">
<title>29</title>
<path fill="none" stroke="#568ad8" stroke-width="2" d="M2506,-252C2506,-252 2462,-252 2462,-252 2456,-252 2450,-246 2450,-240 2450,-240 2450,-228 2450,-228 2450,-222 2456,-216 2462,-216 2462,-216 2506,-216 2506,-216 2512,-216 2518,-222 2518,-228 2518,-228 2518,-240 2518,-240 2518,-246 2512,-252 2506,-252"/>
<text text-anchor="middle" x="2484" y="-231.5" font-family="sans" font-size="10.00">align_reads</text>
</g>
<!-- 15&#45;&gt;29 -->
<g id="edge97" class="edge">
<title>15&#45;&gt;29</title>
<path fill="none" stroke="grey" stroke-width="2" d="M2438.94,-287.69C2446.26,-279.13 2454.91,-269.02 2462.66,-259.95"/>
<polygon fill="grey" stroke="grey" stroke-width="2" points="2465.35,-262.19 2469.19,-252.32 2460.03,-257.64 2465.35,-262.19"/>
</g>
<!-- 16&#45;&gt;0 -->
<g id="edge16" class="edge">
<title>16&#45;&gt;0</title>
<path fill="none" stroke="grey" stroke-width="2" d="M2628.77,-287.97C2638.63,-242.29 2655.52,-128.09 2594,-72 2551.65,-33.39 1667.6,-21.53 1473.47,-19.38"/>
<polygon fill="grey" stroke="grey" stroke-width="2" points="1473.25,-15.88 1463.21,-19.27 1473.17,-22.88 1473.25,-15.88"/>
</g>
<!-- 30 -->
<g id="node31" class="node">
<title>30</title>
<path fill="none" stroke="#568ad8" stroke-width="2" d="M2708,-252C2708,-252 2664,-252 2664,-252 2658,-252 2652,-246 2652,-240 2652,-240 2652,-228 2652,-228 2652,-222 2658,-216 2664,-216 2664,-216 2708,-216 2708,-216 2714,-216 2720,-222 2720,-228 2720,-228 2720,-240 2720,-240 2720,-246 2714,-252 2708,-252"/>
<text text-anchor="middle" x="2686" y="-231.5" font-family="sans" font-size="10.00">align_reads</text>
</g>
<!-- 16&#45;&gt;30 -->
<g id="edge99" class="edge">
<title>16&#45;&gt;30</title>
<path fill="none" stroke="grey" stroke-width="2" d="M2640.94,-287.69C2648.26,-279.13 2656.91,-269.02 2664.66,-259.95"/>
<polygon fill="grey" stroke="grey" stroke-width="2" points="2667.35,-262.19 2671.19,-252.32 2662.03,-257.64 2667.35,-262.19"/>
</g>
<!-- 17 -->
<g id="node18" class="node">
<title>17</title>
<path fill="none" stroke="#59d856" stroke-width="2" d="M1048,-403.5C1048,-403.5 968,-403.5 968,-403.5 962,-403.5 956,-397.5 956,-391.5 956,-391.5 956,-379.5 956,-379.5 956,-373.5 962,-367.5 968,-367.5 968,-367.5 1048,-367.5 1048,-367.5 1054,-367.5 1060,-373.5 1060,-379.5 1060,-379.5 1060,-391.5 1060,-391.5 1060,-397.5 1054,-403.5 1048,-403.5"/>
<text text-anchor="middle" x="1008" y="-388.5" font-family="sans" font-size="10.00">build_bowtie_index</text>
<text text-anchor="middle" x="1008" y="-377.5" font-family="sans" font-size="10.00">dmx_read: R1</text>
</g>
<!-- 17&#45;&gt;0 -->
<g id="edge17" class="edge">
<title>17&#45;&gt;0</title>
<path fill="none" stroke="grey" stroke-width="2" d="M1060.07,-371.46C1072.42,-368.85 1085.62,-366.47 1098,-365 1273.48,-344.2 2519.73,-382.96 2688,-329 2758.67,-306.34 2826,-309.21 2826,-235 2826,-235 2826,-235 2826,-161 2826,-119.26 2829.42,-97.01 2796,-72 2741.58,-31.28 1686.12,-20.94 1473.23,-19.27"/>
<polygon fill="grey" stroke="grey" stroke-width="2" points="1473.21,-15.77 1463.18,-19.19 1473.15,-22.77 1473.21,-15.77"/>
</g>
<!-- 17&#45;&gt;19 -->
<g id="edge78" class="edge">
<title>17&#45;&gt;19</title>
<path fill="none" stroke="grey" stroke-width="2" d="M957.16,-367.45C953.41,-366.52 949.66,-365.69 946,-365 710.04,-320.67 646.33,-348.05 407,-329 349.41,-324.42 283.07,-318.12 240.39,-313.93"/>
<polygon fill="grey" stroke="grey" stroke-width="2" points="240.63,-310.44 230.33,-312.94 239.94,-317.41 240.63,-310.44"/>
</g>
<!-- 17&#45;&gt;20 -->
<g id="edge80" class="edge">
<title>17&#45;&gt;20</title>
<path fill="none" stroke="grey" stroke-width="2" d="M956.44,-367.46C952.93,-366.56 949.42,-365.72 946,-365 860.04,-346.85 599.04,-322.63 494.24,-313.34"/>
<polygon fill="grey" stroke="grey" stroke-width="2" points="494.28,-309.83 484.01,-312.44 493.67,-316.81 494.28,-309.83"/>
</g>
<!-- 17&#45;&gt;21 -->
<g id="edge82" class="edge">
<title>17&#45;&gt;21</title>
<path fill="none" stroke="grey" stroke-width="2" d="M955.99,-367.81C952.62,-366.83 949.27,-365.89 946,-365 877.45,-346.39 796.89,-328.74 748.17,-318.53"/>
<polygon fill="grey" stroke="grey" stroke-width="2" points="748.78,-315.08 738.28,-316.47 747.35,-321.93 748.78,-315.08"/>
</g>
<!-- 17&#45;&gt;22 -->
<g id="edge84" class="edge">
<title>17&#45;&gt;22</title>
<path fill="none" stroke="grey" stroke-width="2" d="M993.25,-367.48C984.75,-357.67 973.91,-345.17 964.48,-334.29"/>
<polygon fill="grey" stroke="grey" stroke-width="2" points="967.11,-331.98 957.92,-326.71 961.82,-336.56 967.11,-331.98"/>
</g>
<!-- 17&#45;&gt;23 -->
<g id="edge86" class="edge">
<title>17&#45;&gt;23</title>
<path fill="none" stroke="grey" stroke-width="2" d="M1044.31,-367.48C1068.1,-356.33 1099.33,-341.69 1124.45,-329.91"/>
<polygon fill="grey" stroke="grey" stroke-width="2" points="1126.19,-332.97 1133.75,-325.55 1123.21,-326.63 1126.19,-332.97"/>
</g>
<!-- 17&#45;&gt;24 -->
<g id="edge88" class="edge">
<title>17&#45;&gt;24</title>
<path fill="none" stroke="grey" stroke-width="2" d="M1060.27,-372.77C1072.62,-370.11 1085.76,-367.37 1098,-365 1197.77,-345.66 1315.53,-326.37 1377.96,-316.42"/>
<polygon fill="grey" stroke="grey" stroke-width="2" points="1378.53,-319.87 1387.86,-314.84 1377.43,-312.96 1378.53,-319.87"/>
</g>
<!-- 18 -->
<g id="node19" class="node">
<title>18</title>
<path fill="none" stroke="#59d856" stroke-width="2" d="M2327,-326.5C2327,-326.5 2247,-326.5 2247,-326.5 2241,-326.5 2235,-320.5 2235,-314.5 2235,-314.5 2235,-302.5 2235,-302.5 2235,-296.5 2241,-290.5 2247,-290.5 2247,-290.5 2327,-290.5 2327,-290.5 2333,-290.5 2339,-296.5 2339,-302.5 2339,-302.5 2339,-314.5 2339,-314.5 2339,-320.5 2333,-326.5 2327,-326.5"/>
<text text-anchor="middle" x="2287" y="-311.5" font-family="sans" font-size="10.00">build_bowtie_index</text>
<text text-anchor="middle" x="2287" y="-300.5" font-family="sans" font-size="10.00">dmx_read: R2</text>
</g>
<!-- 18&#45;&gt;0 -->
<g id="edge18" class="edge">
<title>18&#45;&gt;0</title>
<path fill="none" stroke="grey" stroke-width="2" d="M2339.28,-290.85C2343.56,-289.79 2347.84,-288.81 2352,-288 2517.18,-255.66 2575.55,-321.18 2729,-252 2814.68,-213.37 2905.19,-139.7 2840,-72 2791.25,-21.38 1692.21,-18.95 1473.61,-18.97"/>
<polygon fill="grey" stroke="grey" stroke-width="2" points="1473.3,-15.47 1463.3,-18.97 1473.3,-22.47 1473.3,-15.47"/>
</g>
<!-- 18&#45;&gt;25 -->
<g id="edge90" class="edge">
<title>18&#45;&gt;25</title>
<path fill="none" stroke="grey" stroke-width="2" d="M2235.45,-290.42C2231.93,-289.52 2228.43,-288.7 2225,-288 2067.04,-255.64 2024.39,-268.57 1864,-252 1825.3,-248 1781.31,-243.29 1749.43,-239.84"/>
<polygon fill="grey" stroke="grey" stroke-width="2" points="1749.43,-236.32 1739.11,-238.72 1748.68,-243.27 1749.43,-236.32"/>
</g>
<!-- 18&#45;&gt;26 -->
<g id="edge92" class="edge">
<title>18&#45;&gt;26</title>
<path fill="none" stroke="grey" stroke-width="2" d="M2234.71,-290.49C2231.44,-289.6 2228.18,-288.76 2225,-288 2128.52,-264.91 2013.2,-248.39 1951.38,-240.41"/>
<polygon fill="grey" stroke="grey" stroke-width="2" points="1951.56,-236.9 1941.2,-239.11 1950.67,-243.84 1951.56,-236.9"/>
</g>
<!-- 18&#45;&gt;27 -->
<g id="edge94" class="edge">
<title>18&#45;&gt;27</title>
<path fill="none" stroke="grey" stroke-width="2" d="M2244.82,-290.32C2217.04,-279.01 2180.77,-264.23 2152.69,-252.8"/>
<polygon fill="grey" stroke="grey" stroke-width="2" points="2153.71,-249.43 2143.13,-248.9 2151.07,-255.92 2153.71,-249.43"/>
</g>
<!-- 18&#45;&gt;28 -->
<g id="edge96" class="edge">
<title>18&#45;&gt;28</title>
<path fill="none" stroke="grey" stroke-width="2" d="M2286.29,-290.32C2285.94,-281.92 2285.52,-271.62 2285.12,-262.19"/>
<polygon fill="grey" stroke="grey" stroke-width="2" points="2288.62,-261.9 2284.71,-252.06 2281.62,-262.19 2288.62,-261.9"/>
</g>
<!-- 18&#45;&gt;29 -->
<g id="edge98" class="edge">
<title>18&#45;&gt;29</title>
<path fill="none" stroke="grey" stroke-width="2" d="M2333.69,-290.32C2366.06,-278.4 2408.88,-262.64 2440.54,-251"/>
<polygon fill="grey" stroke="grey" stroke-width="2" points="2441.8,-254.26 2449.98,-247.52 2439.38,-247.69 2441.8,-254.26"/>
</g>
<!-- 18&#45;&gt;30 -->
<g id="edge100" class="edge">
<title>18&#45;&gt;30</title>
<path fill="none" stroke="grey" stroke-width="2" d="M2339.34,-291.14C2343.61,-290.01 2347.86,-288.94 2352,-288 2454.48,-264.61 2576.98,-248.01 2641.37,-240.15"/>
<polygon fill="grey" stroke="grey" stroke-width="2" points="2642.06,-243.59 2651.57,-238.92 2641.22,-236.64 2642.06,-243.59"/>
</g>
<!-- 19&#45;&gt;0 -->
<g id="edge19" class="edge">
<title>19&#45;&gt;0</title>
<path fill="none" stroke="grey" stroke-width="2" d="M167.32,-290.41C154.26,-280.91 140.14,-267.81 133,-252 110.66,-202.55 101.04,-121.43 157,-72 204.74,-29.83 1192.84,-20.68 1398.65,-19.23"/>
<polygon fill="grey" stroke="grey" stroke-width="2" points="1398.96,-22.73 1408.93,-19.16 1398.91,-15.73 1398.96,-22.73"/>
</g>
<!-- 31 -->
<g id="node32" class="node">
<title>31</title>
<path fill="none" stroke="#56c1d8" stroke-width="2" d="M237.5,-252C237.5,-252 154.5,-252 154.5,-252 148.5,-252 142.5,-246 142.5,-240 142.5,-240 142.5,-228 142.5,-228 142.5,-222 148.5,-216 154.5,-216 154.5,-216 237.5,-216 237.5,-216 243.5,-216 249.5,-222 249.5,-228 249.5,-228 249.5,-240 249.5,-240 249.5,-246 243.5,-252 237.5,-252"/>
<text text-anchor="middle" x="196" y="-231.5" font-family="sans" font-size="10.00">make_sorted_bams</text>
</g>
<!-- 19&#45;&gt;31 -->
<g id="edge101" class="edge">
<title>19&#45;&gt;31</title>
<path fill="none" stroke="grey" stroke-width="2" d="M196,-290.32C196,-281.92 196,-271.62 196,-262.19"/>
<polygon fill="grey" stroke="grey" stroke-width="2" points="199.5,-262.06 196,-252.06 192.5,-262.06 199.5,-262.06"/>
</g>
<!-- 20&#45;&gt;0 -->
<g id="edge20" class="edge">
<title>20&#45;&gt;0</title>
<path fill="none" stroke="grey" stroke-width="2" d="M421.32,-290.41C408.26,-280.91 394.14,-267.81 387,-252 365.71,-204.87 345.16,-127.63 405,-72 442.12,-37.49 1218.88,-22.58 1398.95,-19.58"/>
<polygon fill="grey" stroke="grey" stroke-width="2" points="1399.05,-23.08 1408.99,-19.42 1398.94,-16.08 1399.05,-23.08"/>
</g>
<!-- 32 -->
<g id="node33" class="node">
<title>32</title>
<path fill="none" stroke="#56c1d8" stroke-width="2" d="M491.5,-252C491.5,-252 408.5,-252 408.5,-252 402.5,-252 396.5,-246 396.5,-240 396.5,-240 396.5,-228 396.5,-228 396.5,-222 402.5,-216 408.5,-216 408.5,-216 491.5,-216 491.5,-216 497.5,-216 503.5,-222 503.5,-228 503.5,-228 503.5,-240 503.5,-240 503.5,-246 497.5,-252 491.5,-252"/>
<text text-anchor="middle" x="450" y="-231.5" font-family="sans" font-size="10.00">make_sorted_bams</text>
</g>
<!-- 20&#45;&gt;32 -->
<g id="edge102" class="edge">
<title>20&#45;&gt;32</title>
<path fill="none" stroke="grey" stroke-width="2" d="M450,-290.32C450,-281.92 450,-271.62 450,-262.19"/>
<polygon fill="grey" stroke="grey" stroke-width="2" points="453.5,-262.06 450,-252.06 446.5,-262.06 453.5,-262.06"/>
</g>
<!-- 21&#45;&gt;0 -->
<g id="edge21" class="edge">
<title>21&#45;&gt;0</title>
<path fill="none" stroke="grey" stroke-width="2" d="M675.51,-290.32C662.49,-280.8 648.36,-267.71 641,-252 607.05,-179.54 582.32,-130.43 637,-72 689.53,-15.87 1247.78,-17.17 1398.61,-18.56"/>
<polygon fill="grey" stroke="grey" stroke-width="2" points="1398.72,-22.06 1408.76,-18.66 1398.79,-15.06 1398.72,-22.06"/>
</g>
<!-- 33 -->
<g id="node34" class="node">
<title>33</title>
<path fill="none" stroke="#56c1d8" stroke-width="2" d="M745.5,-252C745.5,-252 662.5,-252 662.5,-252 656.5,-252 650.5,-246 650.5,-240 650.5,-240 650.5,-228 650.5,-228 650.5,-222 656.5,-216 662.5,-216 662.5,-216 745.5,-216 745.5,-216 751.5,-216 757.5,-222 757.5,-228 757.5,-228 757.5,-240 757.5,-240 757.5,-246 751.5,-252 745.5,-252"/>
<text text-anchor="middle" x="704" y="-231.5" font-family="sans" font-size="10.00">make_sorted_bams</text>
</g>
<!-- 21&#45;&gt;33 -->
<g id="edge103" class="edge">
<title>21&#45;&gt;33</title>
<path fill="none" stroke="grey" stroke-width="2" d="M704,-290.32C704,-281.92 704,-271.62 704,-262.19"/>
<polygon fill="grey" stroke="grey" stroke-width="2" points="707.5,-262.06 704,-252.06 700.5,-262.06 707.5,-262.06"/>
</g>
<!-- 22&#45;&gt;0 -->
<g id="edge22" class="edge">
<title>22&#45;&gt;0</title>
<path fill="none" stroke="grey" stroke-width="2" d="M928.94,-290.19C921.43,-279.8 912.93,-265.92 909,-252 886.15,-170.97 900.84,-122.77 968,-72 1035.57,-20.91 1300.34,-17.8 1398.83,-18.47"/>
<polygon fill="grey" stroke="grey" stroke-width="2" points="1398.89,-21.97 1408.92,-18.56 1398.95,-14.97 1398.89,-21.97"/>
</g>
<!-- 34 -->
<g id="node35" class="node">
<title>34</title>
<path fill="none" stroke="#56c1d8" stroke-width="2" d="M1013.5,-252C1013.5,-252 930.5,-252 930.5,-252 924.5,-252 918.5,-246 918.5,-240 918.5,-240 918.5,-228 918.5,-228 918.5,-222 924.5,-216 930.5,-216 930.5,-216 1013.5,-216 1013.5,-216 1019.5,-216 1025.5,-222 1025.5,-228 1025.5,-228 1025.5,-240 1025.5,-240 1025.5,-246 1019.5,-252 1013.5,-252"/>
<text text-anchor="middle" x="972" y="-231.5" font-family="sans" font-size="10.00">make_sorted_bams</text>
</g>
<!-- 22&#45;&gt;34 -->
<g id="edge104" class="edge">
<title>22&#45;&gt;34</title>
<path fill="none" stroke="grey" stroke-width="2" d="M949.87,-290.32C953.3,-281.74 957.53,-271.17 961.37,-261.58"/>
<polygon fill="grey" stroke="grey" stroke-width="2" points="964.71,-262.64 965.18,-252.06 958.21,-260.04 964.71,-262.64"/>
</g>
<!-- 23&#45;&gt;0 -->
<g id="edge23" class="edge">
<title>23&#45;&gt;0</title>
<path fill="none" stroke="grey" stroke-width="2" d="M1164.53,-290.44C1156.75,-246.78 1143.13,-130.36 1205,-72 1232.61,-45.95 1340.43,-29.92 1398.48,-23"/>
<polygon fill="grey" stroke="grey" stroke-width="2" points="1399.18,-26.44 1408.71,-21.81 1398.38,-19.49 1399.18,-26.44"/>
</g>
<!-- 35 -->
<g id="node36" class="node">
<title>35</title>
<path fill="none" stroke="#56c1d8" stroke-width="2" d="M1267.5,-252C1267.5,-252 1184.5,-252 1184.5,-252 1178.5,-252 1172.5,-246 1172.5,-240 1172.5,-240 1172.5,-228 1172.5,-228 1172.5,-222 1178.5,-216 1184.5,-216 1184.5,-216 1267.5,-216 1267.5,-216 1273.5,-216 1279.5,-222 1279.5,-228 1279.5,-228 1279.5,-240 1279.5,-240 1279.5,-246 1273.5,-252 1267.5,-252"/>
<text text-anchor="middle" x="1226" y="-231.5" font-family="sans" font-size="10.00">make_sorted_bams</text>
</g>
<!-- 23&#45;&gt;35 -->
<g id="edge105" class="edge">
<title>23&#45;&gt;35</title>
<path fill="none" stroke="grey" stroke-width="2" d="M1181.75,-290.32C1188.97,-281.29 1197.96,-270.05 1205.94,-260.07"/>
<polygon fill="grey" stroke="grey" stroke-width="2" points="1208.84,-262.05 1212.35,-252.06 1203.37,-257.68 1208.84,-262.05"/>
</g>
<!-- 24&#45;&gt;0 -->
<g id="edge24" class="edge">
<title>24&#45;&gt;0</title>
<path fill="none" stroke="grey" stroke-width="2" d="M1420.02,-290.03C1418.88,-279.11 1417.57,-264.76 1417,-252 1413.65,-177.43 1424.92,-89.75 1431.53,-46.28"/>
<polygon fill="grey" stroke="grey" stroke-width="2" points="1435.02,-46.64 1433.1,-36.22 1428.1,-45.56 1435.02,-46.64"/>
</g>
<!-- 36 -->
<g id="node37" class="node">
<title>36</title>
<path fill="none" stroke="#56c1d8" stroke-width="2" d="M1521.5,-252C1521.5,-252 1438.5,-252 1438.5,-252 1432.5,-252 1426.5,-246 1426.5,-240 1426.5,-240 1426.5,-228 1426.5,-228 1426.5,-222 1432.5,-216 1438.5,-216 1438.5,-216 1521.5,-216 1521.5,-216 1527.5,-216 1533.5,-222 1533.5,-228 1533.5,-228 1533.5,-240 1533.5,-240 1533.5,-246 1527.5,-252 1521.5,-252"/>
<text text-anchor="middle" x="1480" y="-231.5" font-family="sans" font-size="10.00">make_sorted_bams</text>
</g>
<!-- 24&#45;&gt;36 -->
<g id="edge106" class="edge">
<title>24&#45;&gt;36</title>
<path fill="none" stroke="grey" stroke-width="2" d="M1435.75,-290.32C1442.97,-281.29 1451.96,-270.05 1459.94,-260.07"/>
<polygon fill="grey" stroke="grey" stroke-width="2" points="1462.84,-262.05 1466.35,-252.06 1457.37,-257.68 1462.84,-262.05"/>
</g>
<!-- 25&#45;&gt;0 -->
<g id="edge25" class="edge">
<title>25&#45;&gt;0</title>
<path fill="none" stroke="grey" stroke-width="2" d="M1692.8,-215.83C1685.9,-205.7 1677.4,-192.45 1671,-180 1647.39,-134.05 1666.48,-106.48 1628,-72 1584.79,-33.28 1515.75,-22.55 1473.29,-19.75"/>
<polygon fill="grey" stroke="grey" stroke-width="2" points="1473.28,-16.24 1463.1,-19.2 1472.9,-23.23 1473.28,-16.24"/>
</g>
<!-- 37 -->
<g id="node38" class="node">
<title>37</title>
<path fill="none" stroke="#56c1d8" stroke-width="2" d="M1775.5,-180C1775.5,-180 1692.5,-180 1692.5,-180 1686.5,-180 1680.5,-174 1680.5,-168 1680.5,-168 1680.5,-156 1680.5,-156 1680.5,-150 1686.5,-144 1692.5,-144 1692.5,-144 1775.5,-144 1775.5,-144 1781.5,-144 1787.5,-150 1787.5,-156 1787.5,-156 1787.5,-168 1787.5,-168 1787.5,-174 1781.5,-180 1775.5,-180"/>
<text text-anchor="middle" x="1734" y="-159.5" font-family="sans" font-size="10.00">make_sorted_bams</text>
</g>
<!-- 25&#45;&gt;37 -->
<g id="edge107" class="edge">
<title>25&#45;&gt;37</title>
<path fill="none" stroke="grey" stroke-width="2" d="M1712.17,-215.7C1715.43,-207.81 1719.37,-198.3 1723,-189.55"/>
<polygon fill="grey" stroke="grey" stroke-width="2" points="1726.32,-190.68 1726.91,-180.1 1719.85,-188 1726.32,-190.68"/>
</g>
<!-- 26&#45;&gt;0 -->
<g id="edge26" class="edge">
<title>26&#45;&gt;0</title>
<path fill="none" stroke="grey" stroke-width="2" d="M1894.8,-215.83C1887.9,-205.7 1879.4,-192.45 1873,-180 1849.39,-134.05 1870.73,-103.79 1830,-72 1774.97,-29.04 1560.85,-20.88 1473.46,-19.35"/>
<polygon fill="grey" stroke="grey" stroke-width="2" points="1473.26,-15.84 1463.2,-19.19 1473.15,-22.84 1473.26,-15.84"/>
</g>
<!-- 38 -->
<g id="node39" class="node">
<title>38</title>
<path fill="none" stroke="#56c1d8" stroke-width="2" d="M1977.5,-180C1977.5,-180 1894.5,-180 1894.5,-180 1888.5,-180 1882.5,-174 1882.5,-168 1882.5,-168 1882.5,-156 1882.5,-156 1882.5,-150 1888.5,-144 1894.5,-144 1894.5,-144 1977.5,-144 1977.5,-144 1983.5,-144 1989.5,-150 1989.5,-156 1989.5,-156 1989.5,-168 1989.5,-168 1989.5,-174 1983.5,-180 1977.5,-180"/>
<text text-anchor="middle" x="1936" y="-159.5" font-family="sans" font-size="10.00">make_sorted_bams</text>
</g>
<!-- 26&#45;&gt;38 -->
<g id="edge108" class="edge">
<title>26&#45;&gt;38</title>
<path fill="none" stroke="grey" stroke-width="2" d="M1914.17,-215.7C1917.43,-207.81 1921.37,-198.3 1925,-189.55"/>
<polygon fill="grey" stroke="grey" stroke-width="2" points="1928.32,-190.68 1928.91,-180.1 1921.85,-188 1928.32,-190.68"/>
</g>
<!-- 27&#45;&gt;0 -->
<g id="edge27" class="edge">
<title>27&#45;&gt;0</title>
<path fill="none" stroke="grey" stroke-width="2" d="M2096.8,-215.83C2089.9,-205.7 2081.4,-192.45 2075,-180 2051.39,-134.05 2073.43,-102.87 2032,-72 1987.18,-38.61 1596.45,-23.9 1473.13,-20.06"/>
<polygon fill="grey" stroke="grey" stroke-width="2" points="1473.14,-16.56 1463.04,-19.76 1472.93,-23.56 1473.14,-16.56"/>
</g>
<!-- 39 -->
<g id="node40" class="node">
<title>39</title>
<path fill="none" stroke="#56c1d8" stroke-width="2" d="M2179.5,-180C2179.5,-180 2096.5,-180 2096.5,-180 2090.5,-180 2084.5,-174 2084.5,-168 2084.5,-168 2084.5,-156 2084.5,-156 2084.5,-150 2090.5,-144 2096.5,-144 2096.5,-144 2179.5,-144 2179.5,-144 2185.5,-144 2191.5,-150 2191.5,-156 2191.5,-156 2191.5,-168 2191.5,-168 2191.5,-174 2185.5,-180 2179.5,-180"/>
<text text-anchor="middle" x="2138" y="-159.5" font-family="sans" font-size="10.00">make_sorted_bams</text>
</g>
<!-- 27&#45;&gt;39 -->
<g id="edge109" class="edge">
<title>27&#45;&gt;39</title>
<path fill="none" stroke="grey" stroke-width="2" d="M2116.17,-215.7C2119.43,-207.81 2123.37,-198.3 2127,-189.55"/>
<polygon fill="grey" stroke="grey" stroke-width="2" points="2130.32,-190.68 2130.91,-180.1 2123.85,-188 2130.32,-190.68"/>
</g>
<!-- 28&#45;&gt;0 -->
<g id="edge28" class="edge">
<title>28&#45;&gt;0</title>
<path fill="none" stroke="grey" stroke-width="2" d="M2281.17,-215.86C2274.57,-178.2 2256.98,-90.13 2234,-72 2173.79,-24.49 1623.08,-19.51 1473.4,-19.04"/>
<polygon fill="grey" stroke="grey" stroke-width="2" points="1473.34,-15.54 1463.33,-19.01 1473.32,-22.54 1473.34,-15.54"/>
</g>
<!-- 40 -->
<g id="node41" class="node">
<title>40</title>
<path fill="none" stroke="#56c1d8" stroke-width="2" d="M2381.5,-180C2381.5,-180 2298.5,-180 2298.5,-180 2292.5,-180 2286.5,-174 2286.5,-168 2286.5,-168 2286.5,-156 2286.5,-156 2286.5,-150 2292.5,-144 2298.5,-144 2298.5,-144 2381.5,-144 2381.5,-144 2387.5,-144 2393.5,-150 2393.5,-156 2393.5,-156 2393.5,-168 2393.5,-168 2393.5,-174 2387.5,-180 2381.5,-180"/>
<text text-anchor="middle" x="2340" y="-159.5" font-family="sans" font-size="10.00">make_sorted_bams</text>
</g>
<!-- 28&#45;&gt;40 -->
<g id="edge110" class="edge">
<title>28&#45;&gt;40</title>
<path fill="none" stroke="grey" stroke-width="2" d="M2297.84,-215.7C2304.49,-207.39 2312.58,-197.28 2319.89,-188.14"/>
<polygon fill="grey" stroke="grey" stroke-width="2" points="2322.8,-190.1 2326.32,-180.1 2317.34,-185.73 2322.8,-190.1"/>
</g>
<!-- 29&#45;&gt;0 -->
<g id="edge29" class="edge">
<title>29&#45;&gt;0</title>
<path fill="none" stroke="grey" stroke-width="2" d="M2481.4,-215.85C2475.32,-178.16 2458.92,-90.04 2436,-72 2397.47,-41.66 1649.98,-23.63 1473.23,-19.78"/>
<polygon fill="grey" stroke="grey" stroke-width="2" points="1473.2,-16.28 1463.12,-19.56 1473.05,-23.28 1473.2,-16.28"/>
</g>
<!-- 41 -->
<g id="node42" class="node">
<title>41</title>
<path fill="none" stroke="#56c1d8" stroke-width="2" d="M2583.5,-180C2583.5,-180 2500.5,-180 2500.5,-180 2494.5,-180 2488.5,-174 2488.5,-168 2488.5,-168 2488.5,-156 2488.5,-156 2488.5,-150 2494.5,-144 2500.5,-144 2500.5,-144 2583.5,-144 2583.5,-144 2589.5,-144 2595.5,-150 2595.5,-156 2595.5,-156 2595.5,-168 2595.5,-168 2595.5,-174 2589.5,-180 2583.5,-180"/>
<text text-anchor="middle" x="2542" y="-159.5" font-family="sans" font-size="10.00">make_sorted_bams</text>
</g>
<!-- 29&#45;&gt;41 -->
<g id="edge111" class="edge">
<title>29&#45;&gt;41</title>
<path fill="none" stroke="grey" stroke-width="2" d="M2498.34,-215.7C2505.29,-207.3 2513.77,-197.07 2521.4,-187.86"/>
<polygon fill="grey" stroke="grey" stroke-width="2" points="2524.14,-190.04 2527.83,-180.1 2518.75,-185.57 2524.14,-190.04"/>
</g>
<!-- 30&#45;&gt;0 -->
<g id="edge30" class="edge">
<title>30&#45;&gt;0</title>
<path fill="none" stroke="grey" stroke-width="2" d="M2683.42,-215.83C2677.36,-178.12 2661,-89.94 2638,-72 2590.98,-35.31 1670.89,-21.9 1473.2,-19.44"/>
<polygon fill="grey" stroke="grey" stroke-width="2" points="1473.08,-15.93 1463.04,-19.31 1472.99,-22.93 1473.08,-15.93"/>
</g>
<!-- 42 -->
<g id="node43" class="node">
<title>42</title>
<path fill="none" stroke="#56c1d8" stroke-width="2" d="M2785.5,-180C2785.5,-180 2702.5,-180 2702.5,-180 2696.5,-180 2690.5,-174 2690.5,-168 2690.5,-168 2690.5,-156 2690.5,-156 2690.5,-150 2696.5,-144 2702.5,-144 2702.5,-144 2785.5,-144 2785.5,-144 2791.5,-144 2797.5,-150 2797.5,-156 2797.5,-156 2797.5,-168 2797.5,-168 2797.5,-174 2791.5,-180 2785.5,-180"/>
<text text-anchor="middle" x="2744" y="-159.5" font-family="sans" font-size="10.00">make_sorted_bams</text>
</g>
<!-- 30&#45;&gt;42 -->
<g id="edge112" class="edge">
<title>30&#45;&gt;42</title>
<path fill="none" stroke="grey" stroke-width="2" d="M2700.34,-215.7C2707.29,-207.3 2715.77,-197.07 2723.4,-187.86"/>
<polygon fill="grey" stroke="grey" stroke-width="2" points="2726.14,-190.04 2729.83,-180.1 2720.75,-185.57 2726.14,-190.04"/>
</g>
<!-- 31&#45;&gt;0 -->
<g id="edge31" class="edge">
<title>31&#45;&gt;0</title>
<path fill="none" stroke="grey" stroke-width="2" d="M186.42,-215.93C169.45,-183.18 139.31,-111.31 177,-72 220.37,-26.77 1194.85,-20.05 1398.79,-19.13"/>
<polygon fill="grey" stroke="grey" stroke-width="2" points="1399,-22.63 1408.98,-19.09 1398.97,-15.63 1399,-22.63"/>
</g>
<!-- 43 -->
<g id="node44" class="node">
<title>43</title>
<path fill="none" stroke="#d85656" stroke-width="2" d="M233.5,-108C233.5,-108 198.5,-108 198.5,-108 192.5,-108 186.5,-102 186.5,-96 186.5,-96 186.5,-84 186.5,-84 186.5,-78 192.5,-72 198.5,-72 198.5,-72 233.5,-72 233.5,-72 239.5,-72 245.5,-78 245.5,-84 245.5,-84 245.5,-96 245.5,-96 245.5,-102 239.5,-108 233.5,-108"/>
<text text-anchor="middle" x="216" y="-87.5" font-family="sans" font-size="10.00">get_stats</text>
</g>
<!-- 31&#45;&gt;43 -->
<g id="edge113" class="edge">
<title>31&#45;&gt;43</title>
<path fill="none" stroke="grey" stroke-width="2" d="M198.41,-215.87C201.82,-191.67 208.08,-147.21 212.14,-118.39"/>
<polygon fill="grey" stroke="grey" stroke-width="2" points="215.65,-118.58 213.58,-108.19 208.72,-117.6 215.65,-118.58"/>
</g>
<!-- 55 -->
<g id="node56" class="node">
<title>55</title>
<path fill="none" stroke="#bed856" stroke-width="2" d="M290,-180C290,-180 230,-180 230,-180 224,-180 218,-174 218,-168 218,-168 218,-156 218,-156 218,-150 224,-144 230,-144 230,-144 290,-144 290,-144 296,-144 302,-150 302,-156 302,-156 302,-168 302,-168 302,-174 296,-180 290,-180"/>
<text text-anchor="middle" x="260" y="-159.5" font-family="sans" font-size="10.00">count_pgRNAs</text>
</g>
<!-- 31&#45;&gt;55 -->
<g id="edge125" class="edge">
<title>31&#45;&gt;55</title>
<path fill="none" stroke="grey" stroke-width="2" d="M211.82,-215.7C219.57,-207.22 229.04,-196.86 237.52,-187.58"/>
<polygon fill="grey" stroke="grey" stroke-width="2" points="240.2,-189.85 244.36,-180.1 235.03,-185.12 240.2,-189.85"/>
</g>
<!-- 32&#45;&gt;0 -->
<g id="edge32" class="edge">
<title>32&#45;&gt;0</title>
<path fill="none" stroke="grey" stroke-width="2" d="M439.52,-216C420.89,-183.37 387.32,-111.7 425,-72 459.16,-36 1220.17,-22.27 1398.74,-19.53"/>
<polygon fill="grey" stroke="grey" stroke-width="2" points="1399,-23.03 1408.94,-19.38 1398.89,-16.03 1399,-23.03"/>
</g>
<!-- 44 -->
<g id="node45" class="node">
<title>44</title>
<path fill="none" stroke="#d85656" stroke-width="2" d="M481.5,-108C481.5,-108 446.5,-108 446.5,-108 440.5,-108 434.5,-102 434.5,-96 434.5,-96 434.5,-84 434.5,-84 434.5,-78 440.5,-72 446.5,-72 446.5,-72 481.5,-72 481.5,-72 487.5,-72 493.5,-78 493.5,-84 493.5,-84 493.5,-96 493.5,-96 493.5,-102 487.5,-108 481.5,-108"/>
<text text-anchor="middle" x="464" y="-87.5" font-family="sans" font-size="10.00">get_stats</text>
</g>
<!-- 32&#45;&gt;44 -->
<g id="edge114" class="edge">
<title>32&#45;&gt;44</title>
<path fill="none" stroke="grey" stroke-width="2" d="M451.69,-215.87C454.07,-191.67 458.46,-147.21 461.3,-118.39"/>
<polygon fill="grey" stroke="grey" stroke-width="2" points="464.81,-118.48 462.31,-108.19 457.84,-117.8 464.81,-118.48"/>
</g>
<!-- 56 -->
<g id="node57" class="node">
<title>56</title>
<path fill="none" stroke="#bed856" stroke-width="2" d="M544,-180C544,-180 484,-180 484,-180 478,-180 472,-174 472,-168 472,-168 472,-156 472,-156 472,-150 478,-144 484,-144 484,-144 544,-144 544,-144 550,-144 556,-150 556,-156 556,-156 556,-168 556,-168 556,-174 550,-180 544,-180"/>
<text text-anchor="middle" x="514" y="-159.5" font-family="sans" font-size="10.00">count_pgRNAs</text>
</g>
<!-- 32&#45;&gt;56 -->
<g id="edge126" class="edge">
<title>32&#45;&gt;56</title>
<path fill="none" stroke="grey" stroke-width="2" d="M465.82,-215.7C473.57,-207.22 483.04,-196.86 491.52,-187.58"/>
<polygon fill="grey" stroke="grey" stroke-width="2" points="494.2,-189.85 498.36,-180.1 489.03,-185.12 494.2,-189.85"/>
</g>
<!-- 33&#45;&gt;0 -->
<g id="edge33" class="edge">
<title>33&#45;&gt;0</title>
<path fill="none" stroke="grey" stroke-width="2" d="M689.16,-215.53C663.41,-183.06 616.7,-112.99 655,-72 706.2,-17.21 1249.71,-17.5 1398.52,-18.62"/>
<polygon fill="grey" stroke="grey" stroke-width="2" points="1398.91,-22.12 1408.94,-18.71 1398.96,-15.12 1398.91,-22.12"/>
</g>
<!-- 45 -->
<g id="node46" class="node">
<title>45</title>
<path fill="none" stroke="#d85656" stroke-width="2" d="M711.5,-108C711.5,-108 676.5,-108 676.5,-108 670.5,-108 664.5,-102 664.5,-96 664.5,-96 664.5,-84 664.5,-84 664.5,-78 670.5,-72 676.5,-72 676.5,-72 711.5,-72 711.5,-72 717.5,-72 723.5,-78 723.5,-84 723.5,-84 723.5,-96 723.5,-96 723.5,-102 717.5,-108 711.5,-108"/>
<text text-anchor="middle" x="694" y="-87.5" font-family="sans" font-size="10.00">get_stats</text>
</g>
<!-- 33&#45;&gt;45 -->
<g id="edge115" class="edge">
<title>33&#45;&gt;45</title>
<path fill="none" stroke="grey" stroke-width="2" d="M702.79,-215.87C701.09,-191.67 697.96,-147.21 695.93,-118.39"/>
<polygon fill="grey" stroke="grey" stroke-width="2" points="699.4,-117.92 695.21,-108.19 692.42,-118.41 699.4,-117.92"/>
</g>
<!-- 57 -->
<g id="node58" class="node">
<title>57</title>
<path fill="none" stroke="#bed856" stroke-width="2" d="M798,-180C798,-180 738,-180 738,-180 732,-180 726,-174 726,-168 726,-168 726,-156 726,-156 726,-150 732,-144 738,-144 738,-144 798,-144 798,-144 804,-144 810,-150 810,-156 810,-156 810,-168 810,-168 810,-174 804,-180 798,-180"/>
<text text-anchor="middle" x="768" y="-159.5" font-family="sans" font-size="10.00">count_pgRNAs</text>
</g>
<!-- 33&#45;&gt;57 -->
<g id="edge127" class="edge">
<title>33&#45;&gt;57</title>
<path fill="none" stroke="grey" stroke-width="2" d="M719.82,-215.7C727.57,-207.22 737.04,-196.86 745.52,-187.58"/>
<polygon fill="grey" stroke="grey" stroke-width="2" points="748.2,-189.85 752.36,-180.1 743.03,-185.12 748.2,-189.85"/>
</g>
<!-- 34&#45;&gt;0 -->
<g id="edge34" class="edge">
<title>34&#45;&gt;0</title>
<path fill="none" stroke="grey" stroke-width="2" d="M968.03,-215.86C961.32,-182 952.34,-106.81 995,-72 1056.42,-21.89 1303.58,-18.08 1398.56,-18.53"/>
<polygon fill="grey" stroke="grey" stroke-width="2" points="1398.82,-22.03 1408.85,-18.59 1398.87,-15.03 1398.82,-22.03"/>
</g>
<!-- 46 -->
<g id="node47" class="node">
<title>46</title>
<path fill="none" stroke="#d85656" stroke-width="2" d="M1051.5,-108C1051.5,-108 1016.5,-108 1016.5,-108 1010.5,-108 1004.5,-102 1004.5,-96 1004.5,-96 1004.5,-84 1004.5,-84 1004.5,-78 1010.5,-72 1016.5,-72 1016.5,-72 1051.5,-72 1051.5,-72 1057.5,-72 1063.5,-78 1063.5,-84 1063.5,-84 1063.5,-96 1063.5,-96 1063.5,-102 1057.5,-108 1051.5,-108"/>
<text text-anchor="middle" x="1034" y="-87.5" font-family="sans" font-size="10.00">get_stats</text>
</g>
<!-- 34&#45;&gt;46 -->
<g id="edge116" class="edge">
<title>34&#45;&gt;46</title>
<path fill="none" stroke="grey" stroke-width="2" d="M971.55,-215.73C971.73,-197.13 973.96,-167.11 985,-144 990.05,-133.44 997.93,-123.53 1005.92,-115.2"/>
<polygon fill="grey" stroke="grey" stroke-width="2" points="1008.53,-117.54 1013.19,-108.02 1003.62,-112.55 1008.53,-117.54"/>
</g>
<!-- 58 -->
<g id="node59" class="node">
<title>58</title>
<path fill="none" stroke="#bed856" stroke-width="2" d="M1066,-180C1066,-180 1006,-180 1006,-180 1000,-180 994,-174 994,-168 994,-168 994,-156 994,-156 994,-150 1000,-144 1006,-144 1006,-144 1066,-144 1066,-144 1072,-144 1078,-150 1078,-156 1078,-156 1078,-168 1078,-168 1078,-174 1072,-180 1066,-180"/>
<text text-anchor="middle" x="1036" y="-159.5" font-family="sans" font-size="10.00">count_pgRNAs</text>
</g>
<!-- 34&#45;&gt;58 -->
<g id="edge128" class="edge">
<title>34&#45;&gt;58</title>
<path fill="none" stroke="grey" stroke-width="2" d="M987.82,-215.7C995.57,-207.22 1005.04,-196.86 1013.52,-187.58"/>
<polygon fill="grey" stroke="grey" stroke-width="2" points="1016.2,-189.85 1020.36,-180.1 1011.03,-185.12 1016.2,-189.85"/>
</g>
<!-- 35&#45;&gt;0 -->
<g id="edge35" class="edge">
<title>35&#45;&gt;0</title>
<path fill="none" stroke="grey" stroke-width="2" d="M1219.66,-215.78C1209.06,-183.72 1192,-114.32 1225,-72 1246.17,-44.86 1344.14,-29.5 1398.83,-22.9"/>
<polygon fill="grey" stroke="grey" stroke-width="2" points="1399.3,-26.37 1408.83,-21.74 1398.49,-19.42 1399.3,-26.37"/>
</g>
<!-- 47 -->
<g id="node48" class="node">
<title>47</title>
<path fill="none" stroke="#d85656" stroke-width="2" d="M1281.5,-108C1281.5,-108 1246.5,-108 1246.5,-108 1240.5,-108 1234.5,-102 1234.5,-96 1234.5,-96 1234.5,-84 1234.5,-84 1234.5,-78 1240.5,-72 1246.5,-72 1246.5,-72 1281.5,-72 1281.5,-72 1287.5,-72 1293.5,-78 1293.5,-84 1293.5,-84 1293.5,-96 1293.5,-96 1293.5,-102 1287.5,-108 1281.5,-108"/>
<text text-anchor="middle" x="1264" y="-87.5" font-family="sans" font-size="10.00">get_stats</text>
</g>
<!-- 35&#45;&gt;47 -->
<g id="edge117" class="edge">
<title>35&#45;&gt;47</title>
<path fill="none" stroke="grey" stroke-width="2" d="M1226.99,-215.95C1228.39,-197.79 1231.65,-168.37 1239,-144 1241.7,-135.04 1245.69,-125.67 1249.69,-117.35"/>
<polygon fill="grey" stroke="grey" stroke-width="2" points="1252.95,-118.66 1254.32,-108.15 1246.7,-115.51 1252.95,-118.66"/>
</g>
<!-- 59 -->
<g id="node60" class="node">
<title>59</title>
<path fill="none" stroke="#bed856" stroke-width="2" d="M1320,-180C1320,-180 1260,-180 1260,-180 1254,-180 1248,-174 1248,-168 1248,-168 1248,-156 1248,-156 1248,-150 1254,-144 1260,-144 1260,-144 1320,-144 1320,-144 1326,-144 1332,-150 1332,-156 1332,-156 1332,-168 1332,-168 1332,-174 1326,-180 1320,-180"/>
<text text-anchor="middle" x="1290" y="-159.5" font-family="sans" font-size="10.00">count_pgRNAs</text>
</g>
<!-- 35&#45;&gt;59 -->
<g id="edge129" class="edge">
<title>35&#45;&gt;59</title>
<path fill="none" stroke="grey" stroke-width="2" d="M1241.82,-215.7C1249.57,-207.22 1259.04,-196.86 1267.52,-187.58"/>
<polygon fill="grey" stroke="grey" stroke-width="2" points="1270.2,-189.85 1274.36,-180.1 1265.03,-185.12 1270.2,-189.85"/>
</g>
<!-- 36&#45;&gt;0 -->
<g id="edge36" class="edge">
<title>36&#45;&gt;0</title>
<path fill="none" stroke="grey" stroke-width="2" d="M1476.47,-215.85C1468.85,-178.75 1450.76,-90.81 1441.57,-46.1"/>
<polygon fill="grey" stroke="grey" stroke-width="2" points="1444.99,-45.32 1439.54,-36.23 1438.13,-46.73 1444.99,-45.32"/>
</g>
<!-- 48 -->
<g id="node49" class="node">
<title>48</title>
<path fill="none" stroke="#d85656" stroke-width="2" d="M1511.5,-108C1511.5,-108 1476.5,-108 1476.5,-108 1470.5,-108 1464.5,-102 1464.5,-96 1464.5,-96 1464.5,-84 1464.5,-84 1464.5,-78 1470.5,-72 1476.5,-72 1476.5,-72 1511.5,-72 1511.5,-72 1517.5,-72 1523.5,-78 1523.5,-84 1523.5,-84 1523.5,-96 1523.5,-96 1523.5,-102 1517.5,-108 1511.5,-108"/>
<text text-anchor="middle" x="1494" y="-87.5" font-family="sans" font-size="10.00">get_stats</text>
</g>
<!-- 36&#45;&gt;48 -->
<g id="edge118" class="edge">
<title>36&#45;&gt;48</title>
<path fill="none" stroke="grey" stroke-width="2" d="M1481.69,-215.87C1484.07,-191.67 1488.46,-147.21 1491.3,-118.39"/>
<polygon fill="grey" stroke="grey" stroke-width="2" points="1494.81,-118.48 1492.31,-108.19 1487.84,-117.8 1494.81,-118.48"/>
</g>
<!-- 60 -->
<g id="node61" class="node">
<title>60</title>
<path fill="none" stroke="#bed856" stroke-width="2" d="M1574,-180C1574,-180 1514,-180 1514,-180 1508,-180 1502,-174 1502,-168 1502,-168 1502,-156 1502,-156 1502,-150 1508,-144 1514,-144 1514,-144 1574,-144 1574,-144 1580,-144 1586,-150 1586,-156 1586,-156 1586,-168 1586,-168 1586,-174 1580,-180 1574,-180"/>
<text text-anchor="middle" x="1544" y="-159.5" font-family="sans" font-size="10.00">count_pgRNAs</text>
</g>
<!-- 36&#45;&gt;60 -->
<g id="edge130" class="edge">
<title>36&#45;&gt;60</title>
<path fill="none" stroke="grey" stroke-width="2" d="M1495.82,-215.7C1503.57,-207.22 1513.04,-196.86 1521.52,-187.58"/>
<polygon fill="grey" stroke="grey" stroke-width="2" points="1524.2,-189.85 1528.36,-180.1 1519.03,-185.12 1524.2,-189.85"/>
</g>
<!-- 37&#45;&gt;0 -->
<g id="edge37" class="edge">
<title>37&#45;&gt;0</title>
<path fill="none" stroke="grey" stroke-width="2" d="M1725.54,-143.68C1714.66,-123.28 1693.79,-89.91 1666,-72 1606.12,-33.41 1521.49,-22.79 1473.35,-19.95"/>
<polygon fill="grey" stroke="grey" stroke-width="2" points="1473.25,-16.44 1463.08,-19.43 1472.89,-23.43 1473.25,-16.44"/>
</g>
<!-- 49 -->
<g id="node50" class="node">
<title>49</title>
<path fill="none" stroke="#d85656" stroke-width="2" d="M1765.5,-108C1765.5,-108 1730.5,-108 1730.5,-108 1724.5,-108 1718.5,-102 1718.5,-96 1718.5,-96 1718.5,-84 1718.5,-84 1718.5,-78 1724.5,-72 1730.5,-72 1730.5,-72 1765.5,-72 1765.5,-72 1771.5,-72 1777.5,-78 1777.5,-84 1777.5,-84 1777.5,-96 1777.5,-96 1777.5,-102 1771.5,-108 1765.5,-108"/>
<text text-anchor="middle" x="1748" y="-87.5" font-family="sans" font-size="10.00">get_stats</text>
</g>
<!-- 37&#45;&gt;49 -->
<g id="edge119" class="edge">
<title>37&#45;&gt;49</title>
<path fill="none" stroke="grey" stroke-width="2" d="M1737.46,-143.7C1739,-135.98 1740.86,-126.71 1742.58,-118.11"/>
<polygon fill="grey" stroke="grey" stroke-width="2" points="1746.05,-118.6 1744.58,-108.1 1739.19,-117.22 1746.05,-118.6"/>
</g>
<!-- 38&#45;&gt;0 -->
<g id="edge38" class="edge">
<title>38&#45;&gt;0</title>
<path fill="none" stroke="grey" stroke-width="2" d="M1928.21,-143.91C1917.74,-123.09 1897.02,-88.62 1868,-72 1800.99,-33.61 1565.57,-22.74 1473.4,-19.91"/>
<polygon fill="grey" stroke="grey" stroke-width="2" points="1473.24,-16.41 1463.15,-19.61 1473.04,-23.4 1473.24,-16.41"/>
</g>
<!-- 50 -->
<g id="node51" class="node">
<title>50</title>
<path fill="none" stroke="#d85656" stroke-width="2" d="M1967.5,-108C1967.5,-108 1932.5,-108 1932.5,-108 1926.5,-108 1920.5,-102 1920.5,-96 1920.5,-96 1920.5,-84 1920.5,-84 1920.5,-78 1926.5,-72 1932.5,-72 1932.5,-72 1967.5,-72 1967.5,-72 1973.5,-72 1979.5,-78 1979.5,-84 1979.5,-84 1979.5,-96 1979.5,-96 1979.5,-102 1973.5,-108 1967.5,-108"/>
<text text-anchor="middle" x="1950" y="-87.5" font-family="sans" font-size="10.00">get_stats</text>
</g>
<!-- 38&#45;&gt;50 -->
<g id="edge120" class="edge">
<title>38&#45;&gt;50</title>
<path fill="none" stroke="grey" stroke-width="2" d="M1939.46,-143.7C1941,-135.98 1942.86,-126.71 1944.58,-118.11"/>
<polygon fill="grey" stroke="grey" stroke-width="2" points="1948.05,-118.6 1946.58,-108.1 1941.19,-117.22 1948.05,-118.6"/>
</g>
<!-- 39&#45;&gt;0 -->
<g id="edge39" class="edge">
<title>39&#45;&gt;0</title>
<path fill="none" stroke="grey" stroke-width="2" d="M2130.32,-143.73C2119.95,-122.72 2099.34,-88.06 2070,-72 2017.64,-43.34 1601.63,-25.29 1473.46,-20.37"/>
<polygon fill="grey" stroke="grey" stroke-width="2" points="1473.47,-16.87 1463.35,-19.98 1473.21,-23.86 1473.47,-16.87"/>
</g>
<!-- 51 -->
<g id="node52" class="node">
<title>51</title>
<path fill="none" stroke="#d85656" stroke-width="2" d="M2169.5,-108C2169.5,-108 2134.5,-108 2134.5,-108 2128.5,-108 2122.5,-102 2122.5,-96 2122.5,-96 2122.5,-84 2122.5,-84 2122.5,-78 2128.5,-72 2134.5,-72 2134.5,-72 2169.5,-72 2169.5,-72 2175.5,-72 2181.5,-78 2181.5,-84 2181.5,-84 2181.5,-96 2181.5,-96 2181.5,-102 2175.5,-108 2169.5,-108"/>
<text text-anchor="middle" x="2152" y="-87.5" font-family="sans" font-size="10.00">get_stats</text>
</g>
<!-- 39&#45;&gt;51 -->
<g id="edge121" class="edge">
<title>39&#45;&gt;51</title>
<path fill="none" stroke="grey" stroke-width="2" d="M2141.46,-143.7C2143,-135.98 2144.86,-126.71 2146.58,-118.11"/>
<polygon fill="grey" stroke="grey" stroke-width="2" points="2150.05,-118.6 2148.58,-108.1 2143.19,-117.22 2150.05,-118.6"/>
</g>
<!-- 40&#45;&gt;0 -->
<g id="edge40" class="edge">
<title>40&#45;&gt;0</title>
<path fill="none" stroke="grey" stroke-width="2" d="M2332.37,-143.63C2322.05,-122.52 2301.5,-87.77 2272,-72 2201,-34.05 1627.34,-22.1 1473.72,-19.56"/>
<polygon fill="grey" stroke="grey" stroke-width="2" points="1473.46,-16.06 1463.4,-19.4 1473.34,-23.06 1473.46,-16.06"/>
</g>
<!-- 52 -->
<g id="node53" class="node">
<title>52</title>
<path fill="none" stroke="#d85656" stroke-width="2" d="M2371.5,-108C2371.5,-108 2336.5,-108 2336.5,-108 2330.5,-108 2324.5,-102 2324.5,-96 2324.5,-96 2324.5,-84 2324.5,-84 2324.5,-78 2330.5,-72 2336.5,-72 2336.5,-72 2371.5,-72 2371.5,-72 2377.5,-72 2383.5,-78 2383.5,-84 2383.5,-84 2383.5,-96 2383.5,-96 2383.5,-102 2377.5,-108 2371.5,-108"/>
<text text-anchor="middle" x="2354" y="-87.5" font-family="sans" font-size="10.00">get_stats</text>
</g>
<!-- 40&#45;&gt;52 -->
<g id="edge122" class="edge">
<title>40&#45;&gt;52</title>
<path fill="none" stroke="grey" stroke-width="2" d="M2343.46,-143.7C2345,-135.98 2346.86,-126.71 2348.58,-118.11"/>
<polygon fill="grey" stroke="grey" stroke-width="2" points="2352.05,-118.6 2350.58,-108.1 2345.19,-117.22 2352.05,-118.6"/>
</g>
<!-- 41&#45;&gt;0 -->
<g id="edge41" class="edge">
<title>41&#45;&gt;0</title>
<path fill="none" stroke="grey" stroke-width="2" d="M2534.58,-143.94C2524.36,-122.81 2503.77,-87.67 2474,-72 2384.08,-24.65 1648.57,-19.59 1473.36,-19.06"/>
<polygon fill="grey" stroke="grey" stroke-width="2" points="1473.11,-15.56 1463.11,-19.03 1473.1,-22.56 1473.11,-15.56"/>
</g>
<!-- 53 -->
<g id="node54" class="node">
<title>53</title>
<path fill="none" stroke="#d85656" stroke-width="2" d="M2573.5,-108C2573.5,-108 2538.5,-108 2538.5,-108 2532.5,-108 2526.5,-102 2526.5,-96 2526.5,-96 2526.5,-84 2526.5,-84 2526.5,-78 2532.5,-72 2538.5,-72 2538.5,-72 2573.5,-72 2573.5,-72 2579.5,-72 2585.5,-78 2585.5,-84 2585.5,-84 2585.5,-96 2585.5,-96 2585.5,-102 2579.5,-108 2573.5,-108"/>
<text text-anchor="middle" x="2556" y="-87.5" font-family="sans" font-size="10.00">get_stats</text>
</g>
<!-- 41&#45;&gt;53 -->
<g id="edge123" class="edge">
<title>41&#45;&gt;53</title>
<path fill="none" stroke="grey" stroke-width="2" d="M2545.46,-143.7C2547,-135.98 2548.86,-126.71 2550.58,-118.11"/>
<polygon fill="grey" stroke="grey" stroke-width="2" points="2554.05,-118.6 2552.58,-108.1 2547.19,-117.22 2554.05,-118.6"/>
</g>
<!-- 42&#45;&gt;0 -->
<g id="edge42" class="edge">
<title>42&#45;&gt;0</title>
<path fill="none" stroke="grey" stroke-width="2" d="M2736.6,-143.9C2726.4,-122.73 2705.83,-87.55 2676,-72 2567.06,-15.21 1668.17,-17.54 1473.21,-18.73"/>
<polygon fill="grey" stroke="grey" stroke-width="2" points="1473.15,-15.23 1463.17,-18.79 1473.19,-22.23 1473.15,-15.23"/>
</g>
<!-- 54 -->
<g id="node55" class="node">
<title>54</title>
<path fill="none" stroke="#d85656" stroke-width="2" d="M2775.5,-108C2775.5,-108 2740.5,-108 2740.5,-108 2734.5,-108 2728.5,-102 2728.5,-96 2728.5,-96 2728.5,-84 2728.5,-84 2728.5,-78 2734.5,-72 2740.5,-72 2740.5,-72 2775.5,-72 2775.5,-72 2781.5,-72 2787.5,-78 2787.5,-84 2787.5,-84 2787.5,-96 2787.5,-96 2787.5,-102 2781.5,-108 2775.5,-108"/>
<text text-anchor="middle" x="2758" y="-87.5" font-family="sans" font-size="10.00">get_stats</text>
</g>
<!-- 42&#45;&gt;54 -->
<g id="edge124" class="edge">
<title>42&#45;&gt;54</title>
<path fill="none" stroke="grey" stroke-width="2" d="M2747.46,-143.7C2749,-135.98 2750.86,-126.71 2752.58,-118.11"/>
<polygon fill="grey" stroke="grey" stroke-width="2" points="2756.05,-118.6 2754.58,-108.1 2749.19,-117.22 2756.05,-118.6"/>
</g>
<!-- 43&#45;&gt;0 -->
<g id="edge43" class="edge">
<title>43&#45;&gt;0</title>
<path fill="none" stroke="grey" stroke-width="2" d="M245.6,-78.51C254.03,-75.94 263.29,-73.5 272,-72 496.21,-33.49 1224.94,-21.74 1398.6,-19.45"/>
<polygon fill="grey" stroke="grey" stroke-width="2" points="1398.81,-22.95 1408.77,-19.32 1398.72,-15.95 1398.81,-22.95"/>
</g>
<!-- 44&#45;&gt;0 -->
<g id="edge44" class="edge">
<title>44&#45;&gt;0</title>
<path fill="none" stroke="grey" stroke-width="2" d="M493.92,-76.02C498.56,-74.42 503.36,-73 508,-72 682.44,-34.29 1248.23,-22.18 1398.87,-19.58"/>
<polygon fill="grey" stroke="grey" stroke-width="2" points="1399.05,-23.08 1408.99,-19.41 1398.93,-16.08 1399.05,-23.08"/>
</g>
<!-- 45&#45;&gt;0 -->
<g id="edge45" class="edge">
<title>45&#45;&gt;0</title>
<path fill="none" stroke="grey" stroke-width="2" d="M723.93,-76.1C728.57,-74.49 733.37,-73.05 738,-72 865.71,-43.14 1272.92,-25.32 1398.66,-20.39"/>
<polygon fill="grey" stroke="grey" stroke-width="2" points="1399.06,-23.88 1408.92,-20 1398.79,-16.89 1399.06,-23.88"/>
</g>
<!-- 46&#45;&gt;0 -->
<g id="edge46" class="edge">
<title>46&#45;&gt;0</title>
<path fill="none" stroke="grey" stroke-width="2" d="M1063.53,-76.57C1068.31,-74.85 1073.25,-73.25 1078,-72 1192.52,-41.8 1332.5,-27.34 1398.35,-21.81"/>
<polygon fill="grey" stroke="grey" stroke-width="2" points="1398.96,-25.27 1408.64,-20.97 1398.39,-18.3 1398.96,-25.27"/>
</g>
<!-- 47&#45;&gt;0 -->
<g id="edge47" class="edge">
<title>47&#45;&gt;0</title>
<path fill="none" stroke="grey" stroke-width="2" d="M1293.57,-76.97C1322.9,-65.03 1367.92,-46.71 1399.47,-33.87"/>
<polygon fill="grey" stroke="grey" stroke-width="2" points="1400.86,-37.08 1408.8,-30.07 1398.22,-30.6 1400.86,-37.08"/>
</g>
<!-- 48&#45;&gt;0 -->
<g id="edge48" class="edge">
<title>48&#45;&gt;0</title>
<path fill="none" stroke="grey" stroke-width="2" d="M1479.66,-71.7C1472.71,-63.3 1464.23,-53.07 1456.6,-43.86"/>
<polygon fill="grey" stroke="grey" stroke-width="2" points="1459.25,-41.57 1450.17,-36.1 1453.86,-46.04 1459.25,-41.57"/>
</g>
<!-- 49&#45;&gt;0 -->
<g id="edge49" class="edge">
<title>49&#45;&gt;0</title>
<path fill="none" stroke="grey" stroke-width="2" d="M1718.42,-76.77C1713.64,-75.03 1708.72,-73.37 1704,-72 1623.24,-48.6 1525.8,-32.19 1473.52,-24.31"/>
<polygon fill="grey" stroke="grey" stroke-width="2" points="1473.79,-20.82 1463.38,-22.81 1472.76,-27.74 1473.79,-20.82"/>
</g>
<!-- 50&#45;&gt;0 -->
<g id="edge50" class="edge">
<title>50&#45;&gt;0</title>
<path fill="none" stroke="grey" stroke-width="2" d="M1920.03,-76.25C1915.39,-74.62 1910.61,-73.13 1906,-72 1748.2,-33.3 1553.55,-22.76 1473.29,-19.97"/>
<polygon fill="grey" stroke="grey" stroke-width="2" points="1473.29,-16.47 1463.18,-19.64 1473.06,-23.47 1473.29,-16.47"/>
</g>
<!-- 51&#45;&gt;0 -->
<g id="edge51" class="edge">
<title>51&#45;&gt;0</title>
<path fill="none" stroke="grey" stroke-width="2" d="M2122.06,-76.11C2117.42,-74.5 2112.63,-73.05 2108,-72 1985.48,-44.12 1595.66,-25.72 1473.19,-20.51"/>
<polygon fill="grey" stroke="grey" stroke-width="2" points="1473.32,-17.02 1463.18,-20.09 1473.02,-24.01 1473.32,-17.02"/>
</g>
<!-- 52&#45;&gt;0 -->
<g id="edge52" class="edge">
<title>52&#45;&gt;0</title>
<path fill="none" stroke="grey" stroke-width="2" d="M2324.08,-76.04C2319.44,-74.44 2314.64,-73.01 2310,-72 2146.62,-36.39 1618.6,-22.84 1473.31,-19.74"/>
<polygon fill="grey" stroke="grey" stroke-width="2" points="1473.2,-16.23 1463.13,-19.52 1473.05,-23.23 1473.2,-16.23"/>
</g>
<!-- 53&#45;&gt;0 -->
<g id="edge53" class="edge">
<title>53&#45;&gt;0</title>
<path fill="none" stroke="grey" stroke-width="2" d="M2526.09,-75.99C2521.45,-74.4 2516.65,-72.99 2512,-72 2307.45,-28.63 1639.4,-20.59 1473.53,-19.25"/>
<polygon fill="grey" stroke="grey" stroke-width="2" points="1473.37,-15.75 1463.35,-19.17 1473.32,-22.75 1473.37,-15.75"/>
</g>
<!-- 54&#45;&gt;0 -->
<g id="edge54" class="edge">
<title>54&#45;&gt;0</title>
<path fill="none" stroke="grey" stroke-width="2" d="M2728.1,-75.96C2723.45,-74.37 2718.65,-72.97 2714,-72 2467.93,-20.82 1657.78,-18.71 1473.52,-18.91"/>
<polygon fill="grey" stroke="grey" stroke-width="2" points="1473.26,-15.41 1463.26,-18.92 1473.27,-22.41 1473.26,-15.41"/>
</g>
<!-- 55&#45;&gt;0 -->
<g id="edge55" class="edge">
<title>55&#45;&gt;0</title>
<path fill="none" stroke="grey" stroke-width="2" d="M265.37,-143.65C272.92,-122.56 288.88,-87.83 316,-72 411.2,-16.45 1214.61,-17.71 1398.57,-18.74"/>
<polygon fill="grey" stroke="grey" stroke-width="2" points="1398.8,-22.24 1408.82,-18.8 1398.84,-15.24 1398.8,-22.24"/>
</g>
<!-- 61 -->
<g id="node62" class="node">
<title>61</title>
<path fill="none" stroke="#56d88a" stroke-width="2" d="M860,-108C860,-108 792,-108 792,-108 786,-108 780,-102 780,-96 780,-96 780,-84 780,-84 780,-78 786,-72 792,-72 792,-72 860,-72 860,-72 866,-72 872,-78 872,-84 872,-84 872,-96 872,-96 872,-102 866,-108 860,-108"/>
<text text-anchor="middle" x="826" y="-87.5" font-family="sans" font-size="10.00">combine_counts</text>
</g>
<!-- 55&#45;&gt;61 -->
<g id="edge131" class="edge">
<title>55&#45;&gt;61</title>
<path fill="none" stroke="grey" stroke-width="2" d="M302.11,-157.23C384.76,-149.61 573.92,-131.14 732,-108 744.18,-106.22 757.2,-104.04 769.54,-101.84"/>
<polygon fill="grey" stroke="grey" stroke-width="2" points="770.51,-105.23 779.72,-100.01 769.26,-98.34 770.51,-105.23"/>
</g>
<!-- 56&#45;&gt;0 -->
<g id="edge56" class="edge">
<title>56&#45;&gt;0</title>
<path fill="none" stroke="grey" stroke-width="2" d="M514.81,-143.65C516.8,-122.88 523.52,-88.83 546,-72 615.05,-20.32 1238.47,-18.45 1398.63,-18.84"/>
<polygon fill="grey" stroke="grey" stroke-width="2" points="1398.91,-22.34 1408.92,-18.87 1398.93,-15.34 1398.91,-22.34"/>
</g>
<!-- 56&#45;&gt;61 -->
<g id="edge132" class="edge">
<title>56&#45;&gt;61</title>
<path fill="none" stroke="grey" stroke-width="2" d="M556.08,-151.56C611.3,-139.17 708.41,-117.38 769.86,-103.6"/>
<polygon fill="grey" stroke="grey" stroke-width="2" points="770.78,-106.98 779.78,-101.37 769.25,-100.14 770.78,-106.98"/>
</g>
<!-- 57&#45;&gt;0 -->
<g id="edge57" class="edge">
<title>57&#45;&gt;0</title>
<path fill="none" stroke="grey" stroke-width="2" d="M762.55,-143.7C757.43,-123.63 752.95,-90.89 771,-72 814.52,-26.44 1264.55,-20.04 1398.55,-19.14"/>
<polygon fill="grey" stroke="grey" stroke-width="2" points="1398.75,-22.64 1408.73,-19.08 1398.71,-15.64 1398.75,-22.64"/>
</g>
<!-- 57&#45;&gt;61 -->
<g id="edge133" class="edge">
<title>57&#45;&gt;61</title>
<path fill="none" stroke="grey" stroke-width="2" d="M782.34,-143.7C789.29,-135.3 797.77,-125.07 805.4,-115.86"/>
<polygon fill="grey" stroke="grey" stroke-width="2" points="808.14,-118.04 811.83,-108.1 802.75,-113.57 808.14,-118.04"/>
</g>
<!-- 58&#45;&gt;0 -->
<g id="edge58" class="edge">
<title>58&#45;&gt;0</title>
<path fill="none" stroke="grey" stroke-width="2" d="M1046.3,-143.73C1059.62,-123.05 1084.85,-89.08 1116,-72 1164.24,-45.56 1325.26,-28.6 1398.8,-22.06"/>
<polygon fill="grey" stroke="grey" stroke-width="2" points="1399.33,-25.53 1408.99,-21.17 1398.72,-18.55 1399.33,-25.53"/>
</g>
<!-- 58&#45;&gt;61 -->
<g id="edge134" class="edge">
<title>58&#45;&gt;61</title>
<path fill="none" stroke="grey" stroke-width="2" d="M993.76,-146.92C961.57,-136.19 916.95,-121.32 881.83,-109.61"/>
<polygon fill="grey" stroke="grey" stroke-width="2" points="882.78,-106.24 872.19,-106.4 880.57,-112.88 882.78,-106.24"/>
</g>
<!-- 59&#45;&gt;0 -->
<g id="edge59" class="edge">
<title>59&#45;&gt;0</title>
<path fill="none" stroke="grey" stroke-width="2" d="M1297.67,-143.91C1306.96,-124.64 1324.13,-93.24 1346,-72 1361.48,-56.97 1382.01,-44.47 1399.55,-35.38"/>
<polygon fill="grey" stroke="grey" stroke-width="2" points="1401.55,-38.29 1408.94,-30.69 1398.43,-32.03 1401.55,-38.29"/>
</g>
<!-- 59&#45;&gt;61 -->
<g id="edge135" class="edge">
<title>59&#45;&gt;61</title>
<path fill="none" stroke="grey" stroke-width="2" d="M1247.59,-154.6C1163.63,-141.93 976.21,-113.66 882.14,-99.47"/>
<polygon fill="grey" stroke="grey" stroke-width="2" points="882.65,-96.01 872.24,-97.98 881.6,-102.93 882.65,-96.01"/>
</g>
<!-- 60&#45;&gt;0 -->
<g id="edge60" class="edge">
<title>60&#45;&gt;0</title>
<path fill="none" stroke="grey" stroke-width="2" d="M1545.99,-144C1547.33,-124.81 1546.71,-93.49 1532,-72 1517.98,-51.52 1493.35,-38.16 1472.55,-29.97"/>
<polygon fill="grey" stroke="grey" stroke-width="2" points="1473.6,-26.63 1463.01,-26.46 1471.19,-33.2 1473.6,-26.63"/>
</g>
<!-- 60&#45;&gt;61 -->
<g id="edge136" class="edge">
<title>60&#45;&gt;61</title>
<path fill="none" stroke="grey" stroke-width="2" d="M1501.98,-157C1410.05,-148.24 1184.16,-126.64 995,-108 957.53,-104.31 915.4,-100.07 882.57,-96.75"/>
<polygon fill="grey" stroke="grey" stroke-width="2" points="882.56,-93.23 872.26,-95.7 881.86,-100.19 882.56,-93.23"/>
</g>
<!-- 61&#45;&gt;0 -->
<g id="edge61" class="edge">
<title>61&#45;&gt;0</title>
<path fill="none" stroke="grey" stroke-width="2" d="M872.32,-74.99C876.91,-73.86 881.53,-72.84 886,-72 1076.69,-36.1 1309.42,-23.84 1398.7,-20.28"/>
<polygon fill="grey" stroke="grey" stroke-width="2" points="1399,-23.77 1408.86,-19.89 1398.73,-16.78 1399,-23.77"/>
</g>
</g>
</svg>
